ISO-10303-21;
HEADER;
/* Resonator_SMD-3Pin_7.2x3.0mm.step 3D STEP model for use in ECAD systems
 * Copyright (C) 2019, kicad StepUp
 * 
 * This work is licensed under the [Creative Commons CC-BY-SA 4.0 License](https://creativecommons.org/licenses/by-sa/4.0/legalcode), 
 * with the following exception:
 * To the extent that the creation of electronic designs that use 'Licensed Material' can be considered to be 'Adapted Material', 
 * then the copyright holder waives article 3 of the license with respect to these designs and any generated files which use data provided 
 * as part of the 'Licensed Material'.
 * You are free to use the library data in your own projects without the obligation to share your project files under this or any other license agreement.
 * However, if you wish to redistribute these libraries, or parts thereof (including in modified form) as a collection then the exception above does not apply. 
 * Please refer to https://github.com/KiCad/kicad-packages3D/blob/master/LICENSE.md for further clarification of the exception.
 * Disclaimer of Warranties and Limitation of Liability.
 * These libraries are provided in the hope that they will be useful, but are provided without warranty of any kind, express or implied.
 * *USE 3D CAD DATA AT YOUR OWN RISK*
 * *DO NOT RELY UPON ANY INFORMATION FOUND HERE WITHOUT INDEPENDENT VERIFICATION.*
 * 
 * 
 * 
 * 
 */

FILE_DESCRIPTION(
/* description */ ('model of Resonator_SMD-3Pin_7.2x3.0mm'),
/* implementation_level */ '2;1');

FILE_NAME(
/* name */ 'Resonator_SMD-3Pin_7.2x3.0mm.step',
/* time_stamp */ '2019-07-06T12:00:52',
/* author */ ('kicad StepUp','ksu'),
/* organization */ ('FreeCAD'),
/* preprocessor_version */ 'OCC',
/* originating_system */ 'kicad StepUp',
/* authorisation */ '');

FILE_SCHEMA(('AUTOMOTIVE_DESIGN { 1 0 10303 214 1 1 1 1 }'));
ENDSEC;

DATA;
#1=APPLICATION_PROTOCOL_DEFINITION('international standard','automotive_design',2000,#2);
#2=APPLICATION_CONTEXT('core data for automotive mechanical design processes');
#3=SHAPE_DEFINITION_REPRESENTATION(#4,#10);
#4=PRODUCT_DEFINITION_SHAPE('','',#5);
#5=PRODUCT_DEFINITION('design','',#6,#9);
#6=PRODUCT_DEFINITION_FORMATION('','',#7);
#7=PRODUCT('muRata_CSTCC8M00G53','muRata_CSTCC8M00G53','',(#8));
#8=PRODUCT_CONTEXT('',#2,'mechanical');
#9=PRODUCT_DEFINITION_CONTEXT('part definition',#2,'design');
#10=ADVANCED_BREP_SHAPE_REPRESENTATION('',(#11,#15),#1602);
#11=AXIS2_PLACEMENT_3D('',#12,#13,#14);
#12=CARTESIAN_POINT('',(0.E+000,0.E+000,0.E+000));
#13=DIRECTION('',(0.E+000,0.E+000,1.));
#14=DIRECTION('',(1.,0.E+000,-0.E+000));
#15=MANIFOLD_SOLID_BREP('',#16);
#16=CLOSED_SHELL('',(#17,#48,#106,#122,#150,#172,#184,#203,#214,#238,#243,#318,#334,#347,#359,#370,#413,#424,#449,#461,#488,#521,#547,#572,#597,#608,#634,#659,#672,#686,#715,#730,#749,#760,#768,#775,#799,#815,#830,#840,#855,#862,#872,#880,#937,#955,#965,#979,#986,#1030,#1040,#1048,#1054,#1061,#1094,#1104,#1112,#1118,#1137,#1157,#1167,#1178,#1189,#1201,#1206,#1210,#1226,#1246,#1265,#1274,#1294,#1311,#1320,#1357,#1367,#1388,#1396,#1405,#1415,#1425,#1433,#1444,#1455,#1483,#1493,#1501,#1507,#1514,#1522,#1528,#1538,#1546,#1554,#1561,#1569,#1579,#1587,#1595));
#17=ADVANCED_FACE('',(#18),#45,.F.);
#18=FACE_BOUND('',#19,.F.);
#19=EDGE_LOOP('',(#20,#29,#35,#40));
#20=ORIENTED_EDGE('',*,*,#21,.F.);
#21=EDGE_CURVE('',#22,#24,#26,.T.);
#22=VERTEX_POINT('',#23);
#23=CARTESIAN_POINT('',(1.9,-1.525,0.E+000));
#24=VERTEX_POINT('',#25);
#25=CARTESIAN_POINT('',(2.275,-1.525,0.E+000));
#26=LINE('',#23,#27);
#27=VECTOR('',#28,1.);
#28=DIRECTION('',(1.,0.E+000,0.E+000));
#29=ORIENTED_EDGE('',*,*,#30,.T.);
#30=EDGE_CURVE('',#22,#31,#33,.T.);
#31=VERTEX_POINT('',#32);
#32=CARTESIAN_POINT('',(1.9,-1.525,0.525));
#33=LINE('',#23,#34);
#34=VECTOR('',#13,1.);
#35=ORIENTED_EDGE('',*,*,#36,.T.);
#36=EDGE_CURVE('',#31,#37,#39,.T.);
#37=VERTEX_POINT('',#38);
#38=CARTESIAN_POINT('',(2.275,-1.525,0.525));
#39=LINE('',#32,#27);
#40=ORIENTED_EDGE('',*,*,#41,.T.);
#41=EDGE_CURVE('',#37,#24,#42,.T.);
#42=LINE('',#25,#43);
#43=VECTOR('',#44,1.);
#44=DIRECTION('',(-0.E+000,-0.E+000,-1.));
#45=PLANE('',#46);
#46=AXIS2_PLACEMENT_3D('',#23,#47,#28);
#47=DIRECTION('',(0.E+000,1.,0.E+000));
#48=ADVANCED_FACE('',(#49),#103,.F.);
#49=FACE_BOUND('',#50,.F.);
#50=EDGE_LOOP('',(#51,#58,#62,#68,#74,#80,#86,#94,#98,#102));
#51=ORIENTED_EDGE('',*,*,#52,.F.);
#52=EDGE_CURVE('',#53,#24,#55,.T.);
#53=VERTEX_POINT('',#54);
#54=CARTESIAN_POINT('',(2.725,-1.525,0.E+000));
#55=CIRCLE('',#56,0.225);
#56=AXIS2_PLACEMENT_3D('',#57,#13,#28);
#57=CARTESIAN_POINT('',(2.5,-1.525,0.E+000));
#58=ORIENTED_EDGE('',*,*,#59,.T.);
#59=EDGE_CURVE('',#53,#60,#26,.T.);
#60=VERTEX_POINT('',#61);
#61=CARTESIAN_POINT('',(3.1,-1.525,0.E+000));
#62=ORIENTED_EDGE('',*,*,#63,.T.);
#63=EDGE_CURVE('',#60,#64,#66,.T.);
#64=VERTEX_POINT('',#65);
#65=CARTESIAN_POINT('',(3.1,-1.5,0.E+000));
#66=LINE('',#61,#67);
#67=VECTOR('',#47,1.);
#68=ORIENTED_EDGE('',*,*,#69,.F.);
#69=EDGE_CURVE('',#70,#64,#72,.T.);
#70=VERTEX_POINT('',#71);
#71=CARTESIAN_POINT('',(3.05,-1.5,0.E+000));
#72=LINE('',#73,#27);
#73=CARTESIAN_POINT('',(-3.6,-1.5,0.E+000));
#74=ORIENTED_EDGE('',*,*,#75,.T.);
#75=EDGE_CURVE('',#70,#76,#78,.T.);
#76=VERTEX_POINT('',#77);
#77=CARTESIAN_POINT('',(3.05,-1.05,0.E+000));
#78=LINE('',#79,#67);
#79=CARTESIAN_POINT('',(3.05,-1.525,0.E+000));
#80=ORIENTED_EDGE('',*,*,#81,.F.);
#81=EDGE_CURVE('',#82,#76,#84,.T.);
#82=VERTEX_POINT('',#83);
#83=CARTESIAN_POINT('',(1.95,-1.05,0.E+000));
#84=LINE('',#85,#27);
#85=CARTESIAN_POINT('',(-3.3,-1.05,0.E+000));
#86=ORIENTED_EDGE('',*,*,#87,.T.);
#87=EDGE_CURVE('',#82,#88,#90,.T.);
#88=VERTEX_POINT('',#89);
#89=CARTESIAN_POINT('',(1.95,-1.5,0.E+000));
#90=LINE('',#91,#92);
#91=CARTESIAN_POINT('',(1.95,1.525,0.E+000));
#92=VECTOR('',#93,1.);
#93=DIRECTION('',(0.E+000,-1.,0.E+000));
#94=ORIENTED_EDGE('',*,*,#95,.F.);
#95=EDGE_CURVE('',#96,#88,#72,.T.);
#96=VERTEX_POINT('',#97);
#97=CARTESIAN_POINT('',(1.9,-1.5,0.E+000));
#98=ORIENTED_EDGE('',*,*,#99,.T.);
#99=EDGE_CURVE('',#96,#22,#100,.T.);
#100=LINE('',#101,#92);
#101=CARTESIAN_POINT('',(1.9,1.525,0.E+000));
#102=ORIENTED_EDGE('',*,*,#21,.T.);
#103=PLANE('',#104);
#104=AXIS2_PLACEMENT_3D('',#105,#13,#28);
#105=CARTESIAN_POINT('',(2.5,0.E+000,0.E+000));
#106=ADVANCED_FACE('',(#107),#120,.F.);
#107=FACE_BOUND('',#108,.T.);
#108=EDGE_LOOP('',(#51,#109,#114,#40));
#109=ORIENTED_EDGE('',*,*,#110,.T.);
#110=EDGE_CURVE('',#53,#111,#113,.T.);
#111=VERTEX_POINT('',#112);
#112=CARTESIAN_POINT('',(2.725,-1.525,0.525));
#113=LINE('',#54,#34);
#114=ORIENTED_EDGE('',*,*,#115,.F.);
#115=EDGE_CURVE('',#37,#111,#116,.T.);
#116=CIRCLE('',#117,0.225);
#117=AXIS2_PLACEMENT_3D('',#118,#119,#28);
#118=CARTESIAN_POINT('',(2.5,-1.525,0.525));
#119=DIRECTION('',(0.E+000,0.E+000,-1.));
#120=CYLINDRICAL_SURFACE('',#121,0.225);
#121=AXIS2_PLACEMENT_3D('',#57,#44,#28);
#122=ADVANCED_FACE('',(#123),#147,.T.);
#123=FACE_BOUND('',#124,.T.);
#124=EDGE_LOOP('',(#125,#35,#131,#132,#136,#141));
#125=ORIENTED_EDGE('',*,*,#126,.T.);
#126=EDGE_CURVE('',#127,#31,#129,.T.);
#127=VERTEX_POINT('',#128);
#128=CARTESIAN_POINT('',(1.9,-1.05,0.525));
#129=LINE('',#130,#92);
#130=CARTESIAN_POINT('',(1.9,1.525,0.525));
#131=ORIENTED_EDGE('',*,*,#115,.T.);
#132=ORIENTED_EDGE('',*,*,#133,.T.);
#133=EDGE_CURVE('',#111,#134,#39,.T.);
#134=VERTEX_POINT('',#135);
#135=CARTESIAN_POINT('',(3.1,-1.525,0.525));
#136=ORIENTED_EDGE('',*,*,#137,.T.);
#137=EDGE_CURVE('',#134,#138,#140,.T.);
#138=VERTEX_POINT('',#139);
#139=CARTESIAN_POINT('',(3.1,-1.05,0.525));
#140=LINE('',#135,#67);
#141=ORIENTED_EDGE('',*,*,#142,.T.);
#142=EDGE_CURVE('',#138,#127,#143,.T.);
#143=LINE('',#144,#145);
#144=CARTESIAN_POINT('',(-0.4,-1.05,0.525));
#145=VECTOR('',#146,1.);
#146=DIRECTION('',(-1.,0.E+000,0.E+000));
#147=PLANE('',#148);
#148=AXIS2_PLACEMENT_3D('',#149,#13,#28);
#149=CARTESIAN_POINT('',(2.5,0.E+000,0.525));
#150=ADVANCED_FACE('',(#151),#170,.F.);
#151=FACE_BOUND('',#152,.F.);
#152=EDGE_LOOP('',(#153,#125,#159,#160,#161,#166));
#153=ORIENTED_EDGE('',*,*,#154,.T.);
#154=EDGE_CURVE('',#155,#127,#157,.T.);
#155=VERTEX_POINT('',#156);
#156=CARTESIAN_POINT('',(1.9,-1.05,0.5));
#157=LINE('',#158,#34);
#158=CARTESIAN_POINT('',(1.9,-1.05,0.E+000));
#159=ORIENTED_EDGE('',*,*,#30,.F.);
#160=ORIENTED_EDGE('',*,*,#99,.F.);
#161=ORIENTED_EDGE('',*,*,#162,.T.);
#162=EDGE_CURVE('',#96,#163,#165,.T.);
#163=VERTEX_POINT('',#164);
#164=CARTESIAN_POINT('',(1.9,-1.5,0.5));
#165=LINE('',#97,#34);
#166=ORIENTED_EDGE('',*,*,#167,.F.);
#167=EDGE_CURVE('',#155,#163,#168,.T.);
#168=LINE('',#169,#92);
#169=CARTESIAN_POINT('',(1.9,0.7625,0.5));
#170=PLANE('',#171);
#171=AXIS2_PLACEMENT_3D('',#101,#28,#93);
#172=ADVANCED_FACE('',(#173),#182,.F.);
#173=FACE_BOUND('',#174,.F.);
#174=EDGE_LOOP('',(#175,#178,#179,#180));
#175=ORIENTED_EDGE('',*,*,#176,.T.);
#176=EDGE_CURVE('',#177,#96,#100,.T.);
#177=VERTEX_POINT('',#158);
#178=ORIENTED_EDGE('',*,*,#95,.T.);
#179=ORIENTED_EDGE('',*,*,#87,.F.);
#180=ORIENTED_EDGE('',*,*,#181,.F.);
#181=EDGE_CURVE('',#177,#82,#84,.T.);
#182=PLANE('',#183);
#183=AXIS2_PLACEMENT_3D('',#12,#13,#28);
#184=ADVANCED_FACE('',(#185),#200,.F.);
#185=FACE_BOUND('',#186,.F.);
#186=EDGE_LOOP('',(#187,#191,#192,#196));
#187=ORIENTED_EDGE('',*,*,#188,.T.);
#188=EDGE_CURVE('',#189,#82,#90,.T.);
#189=VERTEX_POINT('',#190);
#190=CARTESIAN_POINT('',(1.95,1.05,0.E+000));
#191=ORIENTED_EDGE('',*,*,#81,.T.);
#192=ORIENTED_EDGE('',*,*,#193,.T.);
#193=EDGE_CURVE('',#76,#194,#78,.T.);
#194=VERTEX_POINT('',#195);
#195=CARTESIAN_POINT('',(3.05,1.05,0.E+000));
#196=ORIENTED_EDGE('',*,*,#197,.T.);
#197=EDGE_CURVE('',#194,#189,#198,.T.);
#198=LINE('',#199,#145);
#199=CARTESIAN_POINT('',(3.3,1.05,0.E+000));
#200=PLANE('',#201);
#201=AXIS2_PLACEMENT_3D('',#202,#13,#28);
#202=CARTESIAN_POINT('',(1.020894735288E-016,5.104473676438E-017,0.E+000));
#203=ADVANCED_FACE('',(#204),#182,.F.);
#204=FACE_BOUND('',#205,.F.);
#205=EDGE_LOOP('',(#206,#207,#208,#212));
#206=ORIENTED_EDGE('',*,*,#75,.F.);
#207=ORIENTED_EDGE('',*,*,#69,.T.);
#208=ORIENTED_EDGE('',*,*,#209,.T.);
#209=EDGE_CURVE('',#64,#210,#66,.T.);
#210=VERTEX_POINT('',#211);
#211=CARTESIAN_POINT('',(3.1,-1.05,0.E+000));
#212=ORIENTED_EDGE('',*,*,#213,.F.);
#213=EDGE_CURVE('',#76,#210,#84,.T.);
#214=ADVANCED_FACE('',(#215),#236,.F.);
#215=FACE_BOUND('',#216,.F.);
#216=EDGE_LOOP('',(#217,#218,#136,#221,#227,#233));
#217=ORIENTED_EDGE('',*,*,#63,.F.);
#218=ORIENTED_EDGE('',*,*,#219,.T.);
#219=EDGE_CURVE('',#60,#134,#220,.T.);
#220=LINE('',#61,#34);
#221=ORIENTED_EDGE('',*,*,#222,.T.);
#222=EDGE_CURVE('',#138,#223,#225,.T.);
#223=VERTEX_POINT('',#224);
#224=CARTESIAN_POINT('',(3.1,-1.05,0.5));
#225=LINE('',#211,#226);
#226=VECTOR('',#119,1.);
#227=ORIENTED_EDGE('',*,*,#228,.F.);
#228=EDGE_CURVE('',#229,#223,#231,.T.);
#229=VERTEX_POINT('',#230);
#230=CARTESIAN_POINT('',(3.1,-1.5,0.5));
#231=LINE('',#232,#67);
#232=CARTESIAN_POINT('',(3.1,-0.7625,0.5));
#233=ORIENTED_EDGE('',*,*,#234,.T.);
#234=EDGE_CURVE('',#229,#64,#235,.T.);
#235=LINE('',#65,#226);
#236=PLANE('',#237);
#237=AXIS2_PLACEMENT_3D('',#61,#146,#47);
#238=ADVANCED_FACE('',(#239),#45,.F.);
#239=FACE_BOUND('',#240,.F.);
#240=EDGE_LOOP('',(#241,#109,#132,#242));
#241=ORIENTED_EDGE('',*,*,#59,.F.);
#242=ORIENTED_EDGE('',*,*,#219,.F.);
#243=ADVANCED_FACE('',(#244),#316,.F.);
#244=FACE_BOUND('',#245,.F.);
#245=EDGE_LOOP('',(#246,#254,#259,#264,#270,#272,#141,#273,#274,#278,#284,#290,#296,#300,#306,#312));
#246=ORIENTED_EDGE('',*,*,#247,.F.);
#247=EDGE_CURVE('',#248,#250,#252,.T.);
#248=VERTEX_POINT('',#249);
#249=CARTESIAN_POINT('',(-3.3,-1.05,0.5));
#250=VERTEX_POINT('',#251);
#251=CARTESIAN_POINT('',(-3.1,-1.05,0.5));
#252=LINE('',#253,#27);
#253=CARTESIAN_POINT('',(-1.65,-1.05,0.5));
#254=ORIENTED_EDGE('',*,*,#255,.T.);
#255=EDGE_CURVE('',#248,#256,#258,.T.);
#256=VERTEX_POINT('',#257);
#257=CARTESIAN_POINT('',(-3.3,-1.05,1.4));
#258=LINE('',#85,#34);
#259=ORIENTED_EDGE('',*,*,#260,.T.);
#260=EDGE_CURVE('',#256,#261,#263,.T.);
#261=VERTEX_POINT('',#262);
#262=CARTESIAN_POINT('',(3.3,-1.05,1.4));
#263=LINE('',#257,#27);
#264=ORIENTED_EDGE('',*,*,#265,.F.);
#265=EDGE_CURVE('',#266,#261,#268,.T.);
#266=VERTEX_POINT('',#267);
#267=CARTESIAN_POINT('',(3.3,-1.05,0.5));
#268=LINE('',#269,#34);
#269=CARTESIAN_POINT('',(3.3,-1.05,0.E+000));
#270=ORIENTED_EDGE('',*,*,#271,.F.);
#271=EDGE_CURVE('',#223,#266,#252,.T.);
#272=ORIENTED_EDGE('',*,*,#222,.F.);
#273=ORIENTED_EDGE('',*,*,#154,.F.);
#274=ORIENTED_EDGE('',*,*,#275,.F.);
#275=EDGE_CURVE('',#276,#155,#252,.T.);
#276=VERTEX_POINT('',#277);
#277=CARTESIAN_POINT('',(0.6,-1.05,0.5));
#278=ORIENTED_EDGE('',*,*,#279,.F.);
#279=EDGE_CURVE('',#280,#276,#282,.T.);
#280=VERTEX_POINT('',#281);
#281=CARTESIAN_POINT('',(0.6,-1.05,0.525));
#282=LINE('',#283,#226);
#283=CARTESIAN_POINT('',(0.6,-1.05,0.E+000));
#284=ORIENTED_EDGE('',*,*,#285,.T.);
#285=EDGE_CURVE('',#280,#286,#288,.T.);
#286=VERTEX_POINT('',#287);
#287=CARTESIAN_POINT('',(-0.6,-1.05,0.525));
#288=LINE('',#289,#145);
#289=CARTESIAN_POINT('',(-1.65,-1.05,0.525));
#290=ORIENTED_EDGE('',*,*,#291,.F.);
#291=EDGE_CURVE('',#292,#286,#294,.T.);
#292=VERTEX_POINT('',#293);
#293=CARTESIAN_POINT('',(-0.6,-1.05,0.5));
#294=LINE('',#295,#34);
#295=CARTESIAN_POINT('',(-0.6,-1.05,0.E+000));
#296=ORIENTED_EDGE('',*,*,#297,.F.);
#297=EDGE_CURVE('',#298,#292,#252,.T.);
#298=VERTEX_POINT('',#299);
#299=CARTESIAN_POINT('',(-1.9,-1.05,0.5));
#300=ORIENTED_EDGE('',*,*,#301,.F.);
#301=EDGE_CURVE('',#302,#298,#304,.T.);
#302=VERTEX_POINT('',#303);
#303=CARTESIAN_POINT('',(-1.9,-1.05,0.525));
#304=LINE('',#305,#226);
#305=CARTESIAN_POINT('',(-1.9,-1.05,0.E+000));
#306=ORIENTED_EDGE('',*,*,#307,.T.);
#307=EDGE_CURVE('',#302,#308,#310,.T.);
#308=VERTEX_POINT('',#309);
#309=CARTESIAN_POINT('',(-3.1,-1.05,0.525));
#310=LINE('',#311,#145);
#311=CARTESIAN_POINT('',(-2.9,-1.05,0.525));
#312=ORIENTED_EDGE('',*,*,#313,.F.);
#313=EDGE_CURVE('',#250,#308,#314,.T.);
#314=LINE('',#315,#34);
#315=CARTESIAN_POINT('',(-3.1,-1.05,0.E+000));
#316=PLANE('',#317);
#317=AXIS2_PLACEMENT_3D('',#85,#47,#28);
#318=ADVANCED_FACE('',(#319),#331,.T.);
#319=FACE_BOUND('',#320,.T.);
#320=EDGE_LOOP('',(#321,#327,#166,#274));
#321=ORIENTED_EDGE('',*,*,#322,.F.);
#322=EDGE_CURVE('',#323,#276,#325,.T.);
#323=VERTEX_POINT('',#324);
#324=CARTESIAN_POINT('',(0.6,-1.5,0.5));
#325=LINE('',#326,#67);
#326=CARTESIAN_POINT('',(0.6,-0.7625,0.5));
#327=ORIENTED_EDGE('',*,*,#328,.T.);
#328=EDGE_CURVE('',#323,#163,#329,.T.);
#329=LINE('',#330,#27);
#330=CARTESIAN_POINT('',(-3.6,-1.5,0.5));
#331=PLANE('',#332);
#332=AXIS2_PLACEMENT_3D('',#333,#13,#28);
#333=CARTESIAN_POINT('',(0.E+000,0.E+000,0.5));
#334=ADVANCED_FACE('',(#335),#345,.F.);
#335=FACE_BOUND('',#336,.F.);
#336=EDGE_LOOP('',(#337,#341,#327,#344));
#337=ORIENTED_EDGE('',*,*,#338,.F.);
#338=EDGE_CURVE('',#339,#96,#72,.T.);
#339=VERTEX_POINT('',#340);
#340=CARTESIAN_POINT('',(0.6,-1.5,0.E+000));
#341=ORIENTED_EDGE('',*,*,#342,.F.);
#342=EDGE_CURVE('',#323,#339,#343,.T.);
#343=LINE('',#340,#226);
#344=ORIENTED_EDGE('',*,*,#162,.F.);
#345=PLANE('',#346);
#346=AXIS2_PLACEMENT_3D('',#73,#47,#28);
#347=ADVANCED_FACE('',(#348),#182,.F.);
#348=FACE_BOUND('',#349,.F.);
#349=EDGE_LOOP('',(#350,#355,#356,#357));
#350=ORIENTED_EDGE('',*,*,#351,.F.);
#351=EDGE_CURVE('',#339,#352,#353,.T.);
#352=VERTEX_POINT('',#283);
#353=LINE('',#354,#67);
#354=CARTESIAN_POINT('',(0.6,-1.525,0.E+000));
#355=ORIENTED_EDGE('',*,*,#338,.T.);
#356=ORIENTED_EDGE('',*,*,#176,.F.);
#357=ORIENTED_EDGE('',*,*,#358,.F.);
#358=EDGE_CURVE('',#352,#177,#84,.T.);
#359=ADVANCED_FACE('',(#360),#200,.F.);
#360=FACE_BOUND('',#361,.F.);
#361=EDGE_LOOP('',(#362,#366,#367,#368));
#362=ORIENTED_EDGE('',*,*,#363,.T.);
#363=EDGE_CURVE('',#364,#177,#100,.T.);
#364=VERTEX_POINT('',#365);
#365=CARTESIAN_POINT('',(1.9,1.05,0.E+000));
#366=ORIENTED_EDGE('',*,*,#181,.T.);
#367=ORIENTED_EDGE('',*,*,#188,.F.);
#368=ORIENTED_EDGE('',*,*,#369,.T.);
#369=EDGE_CURVE('',#189,#364,#198,.T.);
#370=ADVANCED_FACE('',(#371),#103,.F.);
#371=FACE_BOUND('',#372,.F.);
#372=EDGE_LOOP('',(#373,#381,#385,#390,#397,#400,#404,#408,#410,#411));
#373=ORIENTED_EDGE('',*,*,#374,.F.);
#374=EDGE_CURVE('',#375,#377,#379,.T.);
#375=VERTEX_POINT('',#376);
#376=CARTESIAN_POINT('',(3.1,1.5,0.E+000));
#377=VERTEX_POINT('',#378);
#378=CARTESIAN_POINT('',(3.05,1.5,0.E+000));
#379=LINE('',#380,#145);
#380=CARTESIAN_POINT('',(3.6,1.5,0.E+000));
#381=ORIENTED_EDGE('',*,*,#382,.T.);
#382=EDGE_CURVE('',#375,#383,#66,.T.);
#383=VERTEX_POINT('',#384);
#384=CARTESIAN_POINT('',(3.1,1.525,0.E+000));
#385=ORIENTED_EDGE('',*,*,#386,.T.);
#386=EDGE_CURVE('',#383,#387,#389,.T.);
#387=VERTEX_POINT('',#388);
#388=CARTESIAN_POINT('',(2.725,1.525,0.E+000));
#389=LINE('',#384,#145);
#390=ORIENTED_EDGE('',*,*,#391,.F.);
#391=EDGE_CURVE('',#392,#387,#394,.T.);
#392=VERTEX_POINT('',#393);
#393=CARTESIAN_POINT('',(2.275,1.525,0.E+000));
#394=CIRCLE('',#395,0.225);
#395=AXIS2_PLACEMENT_3D('',#396,#13,#28);
#396=CARTESIAN_POINT('',(2.5,1.525,0.E+000));
#397=ORIENTED_EDGE('',*,*,#398,.T.);
#398=EDGE_CURVE('',#392,#399,#389,.T.);
#399=VERTEX_POINT('',#101);
#400=ORIENTED_EDGE('',*,*,#401,.T.);
#401=EDGE_CURVE('',#399,#402,#100,.T.);
#402=VERTEX_POINT('',#403);
#403=CARTESIAN_POINT('',(1.9,1.5,0.E+000));
#404=ORIENTED_EDGE('',*,*,#405,.F.);
#405=EDGE_CURVE('',#406,#402,#379,.T.);
#406=VERTEX_POINT('',#407);
#407=CARTESIAN_POINT('',(1.95,1.5,0.E+000));
#408=ORIENTED_EDGE('',*,*,#409,.T.);
#409=EDGE_CURVE('',#406,#189,#90,.T.);
#410=ORIENTED_EDGE('',*,*,#197,.F.);
#411=ORIENTED_EDGE('',*,*,#412,.T.);
#412=EDGE_CURVE('',#194,#377,#78,.T.);
#413=ADVANCED_FACE('',(#414),#200,.F.);
#414=FACE_BOUND('',#415,.F.);
#415=EDGE_LOOP('',(#416,#417,#418,#422));
#416=ORIENTED_EDGE('',*,*,#193,.F.);
#417=ORIENTED_EDGE('',*,*,#213,.T.);
#418=ORIENTED_EDGE('',*,*,#419,.T.);
#419=EDGE_CURVE('',#210,#420,#66,.T.);
#420=VERTEX_POINT('',#421);
#421=CARTESIAN_POINT('',(3.1,1.05,0.E+000));
#422=ORIENTED_EDGE('',*,*,#423,.T.);
#423=EDGE_CURVE('',#420,#194,#198,.T.);
#424=ADVANCED_FACE('',(#425),#182,.F.);
#425=FACE_BOUND('',#426,.F.);
#426=EDGE_LOOP('',(#427,#428,#432,#436,#438,#440,#443,#447));
#427=ORIENTED_EDGE('',*,*,#209,.F.);
#428=ORIENTED_EDGE('',*,*,#429,.T.);
#429=EDGE_CURVE('',#64,#430,#72,.T.);
#430=VERTEX_POINT('',#431);
#431=CARTESIAN_POINT('',(3.6,-1.5,0.E+000));
#432=ORIENTED_EDGE('',*,*,#433,.T.);
#433=EDGE_CURVE('',#430,#434,#435,.T.);
#434=VERTEX_POINT('',#380);
#435=LINE('',#431,#67);
#436=ORIENTED_EDGE('',*,*,#437,.T.);
#437=EDGE_CURVE('',#434,#375,#379,.T.);
#438=ORIENTED_EDGE('',*,*,#439,.F.);
#439=EDGE_CURVE('',#420,#375,#66,.T.);
#440=ORIENTED_EDGE('',*,*,#441,.F.);
#441=EDGE_CURVE('',#442,#420,#198,.T.);
#442=VERTEX_POINT('',#199);
#443=ORIENTED_EDGE('',*,*,#444,.F.);
#444=EDGE_CURVE('',#445,#442,#446,.T.);
#445=VERTEX_POINT('',#269);
#446=LINE('',#269,#67);
#447=ORIENTED_EDGE('',*,*,#448,.F.);
#448=EDGE_CURVE('',#210,#445,#84,.T.);
#449=ADVANCED_FACE('',(#450),#345,.F.);
#450=FACE_BOUND('',#451,.F.);
#451=EDGE_LOOP('',(#452,#453,#454,#458));
#452=ORIENTED_EDGE('',*,*,#429,.F.);
#453=ORIENTED_EDGE('',*,*,#234,.F.);
#454=ORIENTED_EDGE('',*,*,#455,.T.);
#455=EDGE_CURVE('',#229,#456,#329,.T.);
#456=VERTEX_POINT('',#457);
#457=CARTESIAN_POINT('',(3.6,-1.5,0.5));
#458=ORIENTED_EDGE('',*,*,#459,.F.);
#459=EDGE_CURVE('',#430,#456,#460,.T.);
#460=LINE('',#431,#34);
#461=ADVANCED_FACE('',(#462),#331,.T.);
#462=FACE_BOUND('',#463,.T.);
#463=EDGE_LOOP('',(#227,#454,#464,#469,#474,#478,#484,#270));
#464=ORIENTED_EDGE('',*,*,#465,.T.);
#465=EDGE_CURVE('',#456,#466,#468,.T.);
#466=VERTEX_POINT('',#467);
#467=CARTESIAN_POINT('',(3.6,1.5,0.5));
#468=LINE('',#457,#67);
#469=ORIENTED_EDGE('',*,*,#470,.T.);
#470=EDGE_CURVE('',#466,#471,#473,.T.);
#471=VERTEX_POINT('',#472);
#472=CARTESIAN_POINT('',(3.1,1.5,0.5));
#473=LINE('',#467,#145);
#474=ORIENTED_EDGE('',*,*,#475,.F.);
#475=EDGE_CURVE('',#476,#471,#231,.T.);
#476=VERTEX_POINT('',#477);
#477=CARTESIAN_POINT('',(3.1,1.05,0.5));
#478=ORIENTED_EDGE('',*,*,#479,.F.);
#479=EDGE_CURVE('',#480,#476,#482,.T.);
#480=VERTEX_POINT('',#481);
#481=CARTESIAN_POINT('',(3.3,1.05,0.5));
#482=LINE('',#483,#145);
#483=CARTESIAN_POINT('',(1.65,1.05,0.5));
#484=ORIENTED_EDGE('',*,*,#485,.F.);
#485=EDGE_CURVE('',#266,#480,#486,.T.);
#486=LINE('',#487,#67);
#487=CARTESIAN_POINT('',(3.3,-0.525,0.5));
#488=ADVANCED_FACE('',(#489),#331,.T.);
#489=FACE_BOUND('',#490,.T.);
#490=EDGE_LOOP('',(#491,#499,#503,#507,#511,#246,#513,#519));
#491=ORIENTED_EDGE('',*,*,#492,.F.);
#492=EDGE_CURVE('',#493,#495,#497,.T.);
#493=VERTEX_POINT('',#494);
#494=CARTESIAN_POINT('',(-3.1,1.5,0.5));
#495=VERTEX_POINT('',#496);
#496=CARTESIAN_POINT('',(-3.1,1.05,0.5));
#497=LINE('',#498,#92);
#498=CARTESIAN_POINT('',(-3.1,0.7625,0.5));
#499=ORIENTED_EDGE('',*,*,#500,.T.);
#500=EDGE_CURVE('',#493,#501,#473,.T.);
#501=VERTEX_POINT('',#502);
#502=CARTESIAN_POINT('',(-3.6,1.5,0.5));
#503=ORIENTED_EDGE('',*,*,#504,.T.);
#504=EDGE_CURVE('',#501,#505,#506,.T.);
#505=VERTEX_POINT('',#330);
#506=LINE('',#502,#92);
#507=ORIENTED_EDGE('',*,*,#508,.T.);
#508=EDGE_CURVE('',#505,#509,#329,.T.);
#509=VERTEX_POINT('',#510);
#510=CARTESIAN_POINT('',(-3.1,-1.5,0.5));
#511=ORIENTED_EDGE('',*,*,#512,.F.);
#512=EDGE_CURVE('',#250,#509,#497,.T.);
#513=ORIENTED_EDGE('',*,*,#514,.F.);
#514=EDGE_CURVE('',#515,#248,#517,.T.);
#515=VERTEX_POINT('',#516);
#516=CARTESIAN_POINT('',(-3.3,1.05,0.5));
#517=LINE('',#518,#92);
#518=CARTESIAN_POINT('',(-3.3,0.525,0.5));
#519=ORIENTED_EDGE('',*,*,#520,.F.);
#520=EDGE_CURVE('',#495,#515,#482,.T.);
#521=ADVANCED_FACE('',(#522),#545,.F.);
#522=FACE_BOUND('',#523,.F.);
#523=EDGE_LOOP('',(#524,#525,#531,#536,#542,#511));
#524=ORIENTED_EDGE('',*,*,#313,.T.);
#525=ORIENTED_EDGE('',*,*,#526,.T.);
#526=EDGE_CURVE('',#308,#527,#529,.T.);
#527=VERTEX_POINT('',#528);
#528=CARTESIAN_POINT('',(-3.1,-1.525,0.525));
#529=LINE('',#530,#92);
#530=CARTESIAN_POINT('',(-3.1,1.525,0.525));
#531=ORIENTED_EDGE('',*,*,#532,.F.);
#532=EDGE_CURVE('',#533,#527,#535,.T.);
#533=VERTEX_POINT('',#534);
#534=CARTESIAN_POINT('',(-3.1,-1.525,0.E+000));
#535=LINE('',#534,#34);
#536=ORIENTED_EDGE('',*,*,#537,.F.);
#537=EDGE_CURVE('',#538,#533,#540,.T.);
#538=VERTEX_POINT('',#539);
#539=CARTESIAN_POINT('',(-3.1,-1.5,0.E+000));
#540=LINE('',#541,#92);
#541=CARTESIAN_POINT('',(-3.1,1.525,0.E+000));
#542=ORIENTED_EDGE('',*,*,#543,.T.);
#543=EDGE_CURVE('',#538,#509,#544,.T.);
#544=LINE('',#539,#34);
#545=PLANE('',#546);
#546=AXIS2_PLACEMENT_3D('',#541,#28,#93);
#547=ADVANCED_FACE('',(#548),#569,.T.);
#548=FACE_BOUND('',#549,.T.);
#549=EDGE_LOOP('',(#525,#550,#555,#562,#566,#306));
#550=ORIENTED_EDGE('',*,*,#551,.T.);
#551=EDGE_CURVE('',#527,#552,#554,.T.);
#552=VERTEX_POINT('',#553);
#553=CARTESIAN_POINT('',(-2.725,-1.525,0.525));
#554=LINE('',#528,#27);
#555=ORIENTED_EDGE('',*,*,#556,.T.);
#556=EDGE_CURVE('',#552,#557,#559,.T.);
#557=VERTEX_POINT('',#558);
#558=CARTESIAN_POINT('',(-2.275,-1.525,0.525));
#559=CIRCLE('',#560,0.225);
#560=AXIS2_PLACEMENT_3D('',#561,#119,#28);
#561=CARTESIAN_POINT('',(-2.5,-1.525,0.525));
#562=ORIENTED_EDGE('',*,*,#563,.T.);
#563=EDGE_CURVE('',#557,#564,#554,.T.);
#564=VERTEX_POINT('',#565);
#565=CARTESIAN_POINT('',(-1.9,-1.525,0.525));
#566=ORIENTED_EDGE('',*,*,#567,.T.);
#567=EDGE_CURVE('',#564,#302,#568,.T.);
#568=LINE('',#565,#67);
#569=PLANE('',#570);
#570=AXIS2_PLACEMENT_3D('',#571,#13,#28);
#571=CARTESIAN_POINT('',(-2.5,0.E+000,0.525));
#572=ADVANCED_FACE('',(#573),#595,.F.);
#573=FACE_BOUND('',#574,.F.);
#574=EDGE_LOOP('',(#575,#582,#566,#585,#586,#592));
#575=ORIENTED_EDGE('',*,*,#576,.F.);
#576=EDGE_CURVE('',#577,#579,#581,.T.);
#577=VERTEX_POINT('',#578);
#578=CARTESIAN_POINT('',(-1.9,-1.525,0.E+000));
#579=VERTEX_POINT('',#580);
#580=CARTESIAN_POINT('',(-1.9,-1.5,0.E+000));
#581=LINE('',#578,#67);
#582=ORIENTED_EDGE('',*,*,#583,.T.);
#583=EDGE_CURVE('',#577,#564,#584,.T.);
#584=LINE('',#578,#34);
#585=ORIENTED_EDGE('',*,*,#301,.T.);
#586=ORIENTED_EDGE('',*,*,#587,.F.);
#587=EDGE_CURVE('',#588,#298,#590,.T.);
#588=VERTEX_POINT('',#589);
#589=CARTESIAN_POINT('',(-1.9,-1.5,0.5));
#590=LINE('',#591,#67);
#591=CARTESIAN_POINT('',(-1.9,-0.7625,0.5));
#592=ORIENTED_EDGE('',*,*,#593,.T.);
#593=EDGE_CURVE('',#588,#579,#594,.T.);
#594=LINE('',#580,#226);
#595=PLANE('',#596);
#596=AXIS2_PLACEMENT_3D('',#578,#146,#47);
#597=ADVANCED_FACE('',(#598),#331,.T.);
#598=FACE_BOUND('',#599,.T.);
#599=EDGE_LOOP('',(#600,#604,#296,#586));
#600=ORIENTED_EDGE('',*,*,#601,.T.);
#601=EDGE_CURVE('',#588,#602,#329,.T.);
#602=VERTEX_POINT('',#603);
#603=CARTESIAN_POINT('',(-0.6,-1.5,0.5));
#604=ORIENTED_EDGE('',*,*,#605,.F.);
#605=EDGE_CURVE('',#292,#602,#606,.T.);
#606=LINE('',#607,#92);
#607=CARTESIAN_POINT('',(-0.6,0.7625,0.5));
#608=ADVANCED_FACE('',(#609),#632,.F.);
#609=FACE_BOUND('',#610,.F.);
#610=EDGE_LOOP('',(#611,#612,#618,#623,#629,#604));
#611=ORIENTED_EDGE('',*,*,#291,.T.);
#612=ORIENTED_EDGE('',*,*,#613,.T.);
#613=EDGE_CURVE('',#286,#614,#616,.T.);
#614=VERTEX_POINT('',#615);
#615=CARTESIAN_POINT('',(-0.6,-1.525,0.525));
#616=LINE('',#617,#92);
#617=CARTESIAN_POINT('',(-0.6,1.525,0.525));
#618=ORIENTED_EDGE('',*,*,#619,.F.);
#619=EDGE_CURVE('',#620,#614,#622,.T.);
#620=VERTEX_POINT('',#621);
#621=CARTESIAN_POINT('',(-0.6,-1.525,0.E+000));
#622=LINE('',#621,#34);
#623=ORIENTED_EDGE('',*,*,#624,.F.);
#624=EDGE_CURVE('',#625,#620,#627,.T.);
#625=VERTEX_POINT('',#626);
#626=CARTESIAN_POINT('',(-0.6,-1.5,0.E+000));
#627=LINE('',#628,#92);
#628=CARTESIAN_POINT('',(-0.6,1.525,0.E+000));
#629=ORIENTED_EDGE('',*,*,#630,.T.);
#630=EDGE_CURVE('',#625,#602,#631,.T.);
#631=LINE('',#626,#34);
#632=PLANE('',#633);
#633=AXIS2_PLACEMENT_3D('',#628,#28,#93);
#634=ADVANCED_FACE('',(#635),#656,.T.);
#635=FACE_BOUND('',#636,.T.);
#636=EDGE_LOOP('',(#612,#637,#642,#649,#653,#284));
#637=ORIENTED_EDGE('',*,*,#638,.T.);
#638=EDGE_CURVE('',#614,#639,#641,.T.);
#639=VERTEX_POINT('',#640);
#640=CARTESIAN_POINT('',(-0.225,-1.525,0.525));
#641=LINE('',#615,#27);
#642=ORIENTED_EDGE('',*,*,#643,.T.);
#643=EDGE_CURVE('',#639,#644,#646,.T.);
#644=VERTEX_POINT('',#645);
#645=CARTESIAN_POINT('',(0.225,-1.525,0.525));
#646=CIRCLE('',#647,0.225);
#647=AXIS2_PLACEMENT_3D('',#648,#119,#28);
#648=CARTESIAN_POINT('',(0.E+000,-1.525,0.525));
#649=ORIENTED_EDGE('',*,*,#650,.T.);
#650=EDGE_CURVE('',#644,#651,#641,.T.);
#651=VERTEX_POINT('',#652);
#652=CARTESIAN_POINT('',(0.6,-1.525,0.525));
#653=ORIENTED_EDGE('',*,*,#654,.T.);
#654=EDGE_CURVE('',#651,#280,#655,.T.);
#655=LINE('',#652,#67);
#656=PLANE('',#657);
#657=AXIS2_PLACEMENT_3D('',#658,#13,#28);
#658=CARTESIAN_POINT('',(2.612289469706E-017,0.E+000,0.525));
#659=ADVANCED_FACE('',(#660),#670,.F.);
#660=FACE_BOUND('',#661,.F.);
#661=EDGE_LOOP('',(#662,#665,#653,#668,#321,#669));
#662=ORIENTED_EDGE('',*,*,#663,.F.);
#663=EDGE_CURVE('',#664,#339,#353,.T.);
#664=VERTEX_POINT('',#354);
#665=ORIENTED_EDGE('',*,*,#666,.T.);
#666=EDGE_CURVE('',#664,#651,#667,.T.);
#667=LINE('',#354,#34);
#668=ORIENTED_EDGE('',*,*,#279,.T.);
#669=ORIENTED_EDGE('',*,*,#342,.T.);
#670=PLANE('',#671);
#671=AXIS2_PLACEMENT_3D('',#354,#146,#47);
#672=ADVANCED_FACE('',(#673),#684,.F.);
#673=FACE_BOUND('',#674,.F.);
#674=EDGE_LOOP('',(#484,#675,#676,#681));
#675=ORIENTED_EDGE('',*,*,#265,.T.);
#676=ORIENTED_EDGE('',*,*,#677,.T.);
#677=EDGE_CURVE('',#261,#678,#680,.T.);
#678=VERTEX_POINT('',#679);
#679=CARTESIAN_POINT('',(3.3,1.05,1.4));
#680=LINE('',#262,#67);
#681=ORIENTED_EDGE('',*,*,#682,.F.);
#682=EDGE_CURVE('',#480,#678,#683,.T.);
#683=LINE('',#199,#34);
#684=PLANE('',#685);
#685=AXIS2_PLACEMENT_3D('',#269,#146,#47);
#686=ADVANCED_FACE('',(#687),#712,.T.);
#687=FACE_BOUND('',#688,.F.);
#688=EDGE_LOOP('',(#689,#698,#704,#711));
#689=ORIENTED_EDGE('',*,*,#690,.T.);
#690=EDGE_CURVE('',#256,#691,#693,.T.);
#691=VERTEX_POINT('',#692);
#692=CARTESIAN_POINT('',(-3.15,-0.9,1.55));
#693=ELLIPSE('',#694,0.212132034356,0.15);
#694=AXIS2_PLACEMENT_3D('',#695,#696,#697);
#695=CARTESIAN_POINT('',(-3.15,-0.9,1.4));
#696=DIRECTION('',(-0.707106781187,0.707106781187,0.E+000));
#697=DIRECTION('',(0.707106781187,0.707106781187,0.E+000));
#698=ORIENTED_EDGE('',*,*,#699,.T.);
#699=EDGE_CURVE('',#691,#700,#702,.T.);
#700=VERTEX_POINT('',#701);
#701=CARTESIAN_POINT('',(3.15,-0.9,1.55));
#702=LINE('',#703,#27);
#703=CARTESIAN_POINT('',(-3.3,-0.9,1.55));
#704=ORIENTED_EDGE('',*,*,#705,.F.);
#705=EDGE_CURVE('',#261,#700,#706,.T.);
#706=ELLIPSE('',#707,0.212132034356,0.15);
#707=AXIS2_PLACEMENT_3D('',#708,#709,#710);
#708=CARTESIAN_POINT('',(3.15,-0.9,1.4));
#709=DIRECTION('',(-0.707106781187,-0.707106781187,0.E+000));
#710=DIRECTION('',(0.707106781187,-0.707106781187,0.E+000));
#711=ORIENTED_EDGE('',*,*,#260,.F.);
#712=CYLINDRICAL_SURFACE('',#713,0.15);
#713=AXIS2_PLACEMENT_3D('',#714,#28,#93);
#714=CARTESIAN_POINT('',(-3.3,-0.9,1.4));
#715=ADVANCED_FACE('',(#716),#728,.F.);
#716=FACE_BOUND('',#717,.F.);
#717=EDGE_LOOP('',(#513,#718,#724,#727));
#718=ORIENTED_EDGE('',*,*,#719,.T.);
#719=EDGE_CURVE('',#515,#720,#722,.T.);
#720=VERTEX_POINT('',#721);
#721=CARTESIAN_POINT('',(-3.3,1.05,1.4));
#722=LINE('',#723,#34);
#723=CARTESIAN_POINT('',(-3.3,1.05,0.E+000));
#724=ORIENTED_EDGE('',*,*,#725,.T.);
#725=EDGE_CURVE('',#720,#256,#726,.T.);
#726=LINE('',#721,#92);
#727=ORIENTED_EDGE('',*,*,#255,.F.);
#728=PLANE('',#729);
#729=AXIS2_PLACEMENT_3D('',#723,#28,#93);
#730=ADVANCED_FACE('',(#731),#746,.F.);
#731=FACE_BOUND('',#732,.F.);
#732=EDGE_LOOP('',(#733,#737,#738,#742));
#733=ORIENTED_EDGE('',*,*,#734,.T.);
#734=EDGE_CURVE('',#735,#339,#72,.T.);
#735=VERTEX_POINT('',#736);
#736=CARTESIAN_POINT('',(0.55,-1.5,0.E+000));
#737=ORIENTED_EDGE('',*,*,#351,.T.);
#738=ORIENTED_EDGE('',*,*,#739,.F.);
#739=EDGE_CURVE('',#740,#352,#84,.T.);
#740=VERTEX_POINT('',#741);
#741=CARTESIAN_POINT('',(0.55,-1.05,0.E+000));
#742=ORIENTED_EDGE('',*,*,#743,.F.);
#743=EDGE_CURVE('',#735,#740,#744,.T.);
#744=LINE('',#745,#67);
#745=CARTESIAN_POINT('',(0.55,-1.525,0.E+000));
#746=PLANE('',#747);
#747=AXIS2_PLACEMENT_3D('',#748,#13,#28);
#748=CARTESIAN_POINT('',(2.612289469706E-017,0.E+000,0.E+000));
#749=ADVANCED_FACE('',(#750),#200,.F.);
#750=FACE_BOUND('',#751,.F.);
#751=EDGE_LOOP('',(#752,#756,#757,#758));
#752=ORIENTED_EDGE('',*,*,#753,.F.);
#753=EDGE_CURVE('',#352,#754,#353,.T.);
#754=VERTEX_POINT('',#755);
#755=CARTESIAN_POINT('',(0.6,1.05,0.E+000));
#756=ORIENTED_EDGE('',*,*,#358,.T.);
#757=ORIENTED_EDGE('',*,*,#363,.F.);
#758=ORIENTED_EDGE('',*,*,#759,.T.);
#759=EDGE_CURVE('',#364,#754,#198,.T.);
#760=ADVANCED_FACE('',(#761),#182,.F.);
#761=FACE_BOUND('',#762,.F.);
#762=EDGE_LOOP('',(#763,#765,#766,#767));
#763=ORIENTED_EDGE('',*,*,#764,.T.);
#764=EDGE_CURVE('',#402,#364,#100,.T.);
#765=ORIENTED_EDGE('',*,*,#369,.F.);
#766=ORIENTED_EDGE('',*,*,#409,.F.);
#767=ORIENTED_EDGE('',*,*,#405,.T.);
#768=ADVANCED_FACE('',(#769),#182,.F.);
#769=FACE_BOUND('',#770,.F.);
#770=EDGE_LOOP('',(#771,#772,#773,#774));
#771=ORIENTED_EDGE('',*,*,#439,.T.);
#772=ORIENTED_EDGE('',*,*,#374,.T.);
#773=ORIENTED_EDGE('',*,*,#412,.F.);
#774=ORIENTED_EDGE('',*,*,#423,.F.);
#775=ADVANCED_FACE('',(#776),#170,.F.);
#776=FACE_BOUND('',#777,.F.);
#777=EDGE_LOOP('',(#778,#779,#783,#787,#792,#796));
#778=ORIENTED_EDGE('',*,*,#401,.F.);
#779=ORIENTED_EDGE('',*,*,#780,.T.);
#780=EDGE_CURVE('',#399,#781,#782,.T.);
#781=VERTEX_POINT('',#130);
#782=LINE('',#101,#34);
#783=ORIENTED_EDGE('',*,*,#784,.T.);
#784=EDGE_CURVE('',#781,#785,#129,.T.);
#785=VERTEX_POINT('',#786);
#786=CARTESIAN_POINT('',(1.9,1.05,0.525));
#787=ORIENTED_EDGE('',*,*,#788,.T.);
#788=EDGE_CURVE('',#785,#789,#791,.T.);
#789=VERTEX_POINT('',#790);
#790=CARTESIAN_POINT('',(1.9,1.05,0.5));
#791=LINE('',#365,#226);
#792=ORIENTED_EDGE('',*,*,#793,.F.);
#793=EDGE_CURVE('',#794,#789,#168,.T.);
#794=VERTEX_POINT('',#795);
#795=CARTESIAN_POINT('',(1.9,1.5,0.5));
#796=ORIENTED_EDGE('',*,*,#797,.T.);
#797=EDGE_CURVE('',#794,#402,#798,.T.);
#798=LINE('',#403,#226);
#799=ADVANCED_FACE('',(#800),#813,.F.);
#800=FACE_BOUND('',#801,.F.);
#801=EDGE_LOOP('',(#802,#803,#808,#812));
#802=ORIENTED_EDGE('',*,*,#398,.F.);
#803=ORIENTED_EDGE('',*,*,#804,.F.);
#804=EDGE_CURVE('',#805,#392,#807,.T.);
#805=VERTEX_POINT('',#806);
#806=CARTESIAN_POINT('',(2.275,1.525,0.525));
#807=LINE('',#393,#43);
#808=ORIENTED_EDGE('',*,*,#809,.T.);
#809=EDGE_CURVE('',#805,#781,#810,.T.);
#810=LINE('',#811,#145);
#811=CARTESIAN_POINT('',(3.1,1.525,0.525));
#812=ORIENTED_EDGE('',*,*,#780,.F.);
#813=PLANE('',#814);
#814=AXIS2_PLACEMENT_3D('',#384,#93,#146);
#815=ADVANCED_FACE('',(#816),#828,.F.);
#816=FACE_BOUND('',#817,.T.);
#817=EDGE_LOOP('',(#818,#390,#803,#823));
#818=ORIENTED_EDGE('',*,*,#819,.F.);
#819=EDGE_CURVE('',#387,#820,#822,.T.);
#820=VERTEX_POINT('',#821);
#821=CARTESIAN_POINT('',(2.725,1.525,0.525));
#822=LINE('',#388,#34);
#823=ORIENTED_EDGE('',*,*,#824,.F.);
#824=EDGE_CURVE('',#820,#805,#825,.T.);
#825=CIRCLE('',#826,0.225);
#826=AXIS2_PLACEMENT_3D('',#827,#119,#28);
#827=CARTESIAN_POINT('',(2.5,1.525,0.525));
#828=CYLINDRICAL_SURFACE('',#829,0.225);
#829=AXIS2_PLACEMENT_3D('',#396,#44,#28);
#830=ADVANCED_FACE('',(#831),#813,.F.);
#831=FACE_BOUND('',#832,.F.);
#832=EDGE_LOOP('',(#833,#834,#838,#818));
#833=ORIENTED_EDGE('',*,*,#386,.F.);
#834=ORIENTED_EDGE('',*,*,#835,.T.);
#835=EDGE_CURVE('',#383,#836,#837,.T.);
#836=VERTEX_POINT('',#811);
#837=LINE('',#384,#34);
#838=ORIENTED_EDGE('',*,*,#839,.T.);
#839=EDGE_CURVE('',#836,#820,#810,.T.);
#840=ADVANCED_FACE('',(#841),#236,.F.);
#841=FACE_BOUND('',#842,.F.);
#842=EDGE_LOOP('',(#843,#848,#850,#851,#852,#474));
#843=ORIENTED_EDGE('',*,*,#844,.T.);
#844=EDGE_CURVE('',#476,#845,#847,.T.);
#845=VERTEX_POINT('',#846);
#846=CARTESIAN_POINT('',(3.1,1.05,0.525));
#847=LINE('',#421,#34);
#848=ORIENTED_EDGE('',*,*,#849,.T.);
#849=EDGE_CURVE('',#845,#836,#140,.T.);
#850=ORIENTED_EDGE('',*,*,#835,.F.);
#851=ORIENTED_EDGE('',*,*,#382,.F.);
#852=ORIENTED_EDGE('',*,*,#853,.T.);
#853=EDGE_CURVE('',#375,#471,#854,.T.);
#854=LINE('',#376,#34);
#855=ADVANCED_FACE('',(#856),#200,.F.);
#856=FACE_BOUND('',#857,.F.);
#857=EDGE_LOOP('',(#858,#859,#860,#861));
#858=ORIENTED_EDGE('',*,*,#419,.F.);
#859=ORIENTED_EDGE('',*,*,#448,.T.);
#860=ORIENTED_EDGE('',*,*,#444,.T.);
#861=ORIENTED_EDGE('',*,*,#441,.T.);
#862=ADVANCED_FACE('',(#863),#870,.F.);
#863=FACE_BOUND('',#864,.F.);
#864=EDGE_LOOP('',(#865,#866,#469,#869));
#865=ORIENTED_EDGE('',*,*,#437,.F.);
#866=ORIENTED_EDGE('',*,*,#867,.T.);
#867=EDGE_CURVE('',#434,#466,#868,.T.);
#868=LINE('',#380,#34);
#869=ORIENTED_EDGE('',*,*,#853,.F.);
#870=PLANE('',#871);
#871=AXIS2_PLACEMENT_3D('',#380,#93,#146);
#872=ADVANCED_FACE('',(#873),#878,.F.);
#873=FACE_BOUND('',#874,.F.);
#874=EDGE_LOOP('',(#875,#464,#876,#877));
#875=ORIENTED_EDGE('',*,*,#459,.T.);
#876=ORIENTED_EDGE('',*,*,#867,.F.);
#877=ORIENTED_EDGE('',*,*,#433,.F.);
#878=PLANE('',#879);
#879=AXIS2_PLACEMENT_3D('',#431,#146,#47);
#880=ADVANCED_FACE('',(#881),#935,.F.);
#881=FACE_BOUND('',#882,.F.);
#882=EDGE_LOOP('',(#478,#883,#884,#887,#519,#888,#894,#900,#906,#910,#916,#922,#927,#929,#930,#934));
#883=ORIENTED_EDGE('',*,*,#682,.T.);
#884=ORIENTED_EDGE('',*,*,#885,.T.);
#885=EDGE_CURVE('',#678,#720,#886,.T.);
#886=LINE('',#679,#145);
#887=ORIENTED_EDGE('',*,*,#719,.F.);
#888=ORIENTED_EDGE('',*,*,#889,.F.);
#889=EDGE_CURVE('',#890,#495,#892,.T.);
#890=VERTEX_POINT('',#891);
#891=CARTESIAN_POINT('',(-3.1,1.05,0.525));
#892=LINE('',#893,#226);
#893=CARTESIAN_POINT('',(-3.1,1.05,0.E+000));
#894=ORIENTED_EDGE('',*,*,#895,.T.);
#895=EDGE_CURVE('',#890,#896,#898,.T.);
#896=VERTEX_POINT('',#897);
#897=CARTESIAN_POINT('',(-1.9,1.05,0.525));
#898=LINE('',#899,#27);
#899=CARTESIAN_POINT('',(0.4,1.05,0.525));
#900=ORIENTED_EDGE('',*,*,#901,.F.);
#901=EDGE_CURVE('',#902,#896,#904,.T.);
#902=VERTEX_POINT('',#903);
#903=CARTESIAN_POINT('',(-1.9,1.05,0.5));
#904=LINE('',#905,#34);
#905=CARTESIAN_POINT('',(-1.9,1.05,0.E+000));
#906=ORIENTED_EDGE('',*,*,#907,.F.);
#907=EDGE_CURVE('',#908,#902,#482,.T.);
#908=VERTEX_POINT('',#909);
#909=CARTESIAN_POINT('',(-0.6,1.05,0.5));
#910=ORIENTED_EDGE('',*,*,#911,.F.);
#911=EDGE_CURVE('',#912,#908,#914,.T.);
#912=VERTEX_POINT('',#913);
#913=CARTESIAN_POINT('',(-0.6,1.05,0.525));
#914=LINE('',#915,#226);
#915=CARTESIAN_POINT('',(-0.6,1.05,0.E+000));
#916=ORIENTED_EDGE('',*,*,#917,.T.);
#917=EDGE_CURVE('',#912,#918,#920,.T.);
#918=VERTEX_POINT('',#919);
#919=CARTESIAN_POINT('',(0.6,1.05,0.525));
#920=LINE('',#921,#27);
#921=CARTESIAN_POINT('',(1.65,1.05,0.525));
#922=ORIENTED_EDGE('',*,*,#923,.F.);
#923=EDGE_CURVE('',#924,#918,#926,.T.);
#924=VERTEX_POINT('',#925);
#925=CARTESIAN_POINT('',(0.6,1.05,0.5));
#926=LINE('',#755,#34);
#927=ORIENTED_EDGE('',*,*,#928,.F.);
#928=EDGE_CURVE('',#789,#924,#482,.T.);
#929=ORIENTED_EDGE('',*,*,#788,.F.);
#930=ORIENTED_EDGE('',*,*,#931,.T.);
#931=EDGE_CURVE('',#785,#845,#932,.T.);
#932=LINE('',#933,#27);
#933=CARTESIAN_POINT('',(2.9,1.05,0.525));
#934=ORIENTED_EDGE('',*,*,#844,.F.);
#935=PLANE('',#936);
#936=AXIS2_PLACEMENT_3D('',#199,#93,#146);
#937=ADVANCED_FACE('',(#938),#545,.F.);
#938=FACE_BOUND('',#939,.F.);
#939=EDGE_LOOP('',(#940,#945,#949,#951,#491,#952));
#940=ORIENTED_EDGE('',*,*,#941,.F.);
#941=EDGE_CURVE('',#942,#943,#540,.T.);
#942=VERTEX_POINT('',#541);
#943=VERTEX_POINT('',#944);
#944=CARTESIAN_POINT('',(-3.1,1.5,0.E+000));
#945=ORIENTED_EDGE('',*,*,#946,.T.);
#946=EDGE_CURVE('',#942,#947,#948,.T.);
#947=VERTEX_POINT('',#530);
#948=LINE('',#541,#34);
#949=ORIENTED_EDGE('',*,*,#950,.T.);
#950=EDGE_CURVE('',#947,#890,#529,.T.);
#951=ORIENTED_EDGE('',*,*,#889,.T.);
#952=ORIENTED_EDGE('',*,*,#953,.T.);
#953=EDGE_CURVE('',#493,#943,#954,.T.);
#954=LINE('',#944,#226);
#955=ADVANCED_FACE('',(#956),#345,.F.);
#956=FACE_BOUND('',#957,.F.);
#957=EDGE_LOOP('',(#958,#961,#507,#964));
#958=ORIENTED_EDGE('',*,*,#959,.F.);
#959=EDGE_CURVE('',#960,#538,#72,.T.);
#960=VERTEX_POINT('',#73);
#961=ORIENTED_EDGE('',*,*,#962,.T.);
#962=EDGE_CURVE('',#960,#505,#963,.T.);
#963=LINE('',#73,#34);
#964=ORIENTED_EDGE('',*,*,#543,.F.);
#965=ADVANCED_FACE('',(#966),#977,.F.);
#966=FACE_BOUND('',#967,.F.);
#967=EDGE_LOOP('',(#968,#503,#973,#974));
#968=ORIENTED_EDGE('',*,*,#969,.T.);
#969=EDGE_CURVE('',#970,#501,#972,.T.);
#970=VERTEX_POINT('',#971);
#971=CARTESIAN_POINT('',(-3.6,1.5,0.E+000));
#972=LINE('',#971,#34);
#973=ORIENTED_EDGE('',*,*,#962,.F.);
#974=ORIENTED_EDGE('',*,*,#975,.F.);
#975=EDGE_CURVE('',#970,#960,#976,.T.);
#976=LINE('',#971,#92);
#977=PLANE('',#978);
#978=AXIS2_PLACEMENT_3D('',#971,#28,#93);
#979=ADVANCED_FACE('',(#980),#870,.F.);
#980=FACE_BOUND('',#981,.F.);
#981=EDGE_LOOP('',(#982,#984,#499,#985));
#982=ORIENTED_EDGE('',*,*,#983,.F.);
#983=EDGE_CURVE('',#943,#970,#379,.T.);
#984=ORIENTED_EDGE('',*,*,#953,.F.);
#985=ORIENTED_EDGE('',*,*,#969,.F.);
#986=ADVANCED_FACE('',(#987),#1027,.F.);
#987=FACE_BOUND('',#988,.F.);
#988=EDGE_LOOP('',(#989,#998,#1001,#1002,#1006,#1012,#1016,#1022,#1024,#1025));
#989=ORIENTED_EDGE('',*,*,#990,.F.);
#990=EDGE_CURVE('',#991,#993,#995,.T.);
#991=VERTEX_POINT('',#992);
#992=CARTESIAN_POINT('',(-2.275,-1.525,0.E+000));
#993=VERTEX_POINT('',#994);
#994=CARTESIAN_POINT('',(-2.725,-1.525,0.E+000));
#995=CIRCLE('',#996,0.225);
#996=AXIS2_PLACEMENT_3D('',#997,#13,#28);
#997=CARTESIAN_POINT('',(-2.5,-1.525,0.E+000));
#998=ORIENTED_EDGE('',*,*,#999,.T.);
#999=EDGE_CURVE('',#991,#577,#1000,.T.);
#1000=LINE('',#534,#27);
#1001=ORIENTED_EDGE('',*,*,#576,.T.);
#1002=ORIENTED_EDGE('',*,*,#1003,.F.);
#1003=EDGE_CURVE('',#1004,#579,#72,.T.);
#1004=VERTEX_POINT('',#1005);
#1005=CARTESIAN_POINT('',(-1.95,-1.5,0.E+000));
#1006=ORIENTED_EDGE('',*,*,#1007,.T.);
#1007=EDGE_CURVE('',#1004,#1008,#1010,.T.);
#1008=VERTEX_POINT('',#1009);
#1009=CARTESIAN_POINT('',(-1.95,-1.05,0.E+000));
#1010=LINE('',#1011,#67);
#1011=CARTESIAN_POINT('',(-1.95,-1.525,0.E+000));
#1012=ORIENTED_EDGE('',*,*,#1013,.F.);
#1013=EDGE_CURVE('',#1014,#1008,#84,.T.);
#1014=VERTEX_POINT('',#1015);
#1015=CARTESIAN_POINT('',(-3.05,-1.05,0.E+000));
#1016=ORIENTED_EDGE('',*,*,#1017,.T.);
#1017=EDGE_CURVE('',#1014,#1018,#1020,.T.);
#1018=VERTEX_POINT('',#1019);
#1019=CARTESIAN_POINT('',(-3.05,-1.5,0.E+000));
#1020=LINE('',#1021,#92);
#1021=CARTESIAN_POINT('',(-3.05,1.525,0.E+000));
#1022=ORIENTED_EDGE('',*,*,#1023,.F.);
#1023=EDGE_CURVE('',#538,#1018,#72,.T.);
#1024=ORIENTED_EDGE('',*,*,#537,.T.);
#1025=ORIENTED_EDGE('',*,*,#1026,.T.);
#1026=EDGE_CURVE('',#533,#993,#1000,.T.);
#1027=PLANE('',#1028);
#1028=AXIS2_PLACEMENT_3D('',#1029,#13,#28);
#1029=CARTESIAN_POINT('',(-2.5,0.E+000,0.E+000));
#1030=ADVANCED_FACE('',(#1031),#1038,.F.);
#1031=FACE_BOUND('',#1032,.F.);
#1032=EDGE_LOOP('',(#1033,#1034,#550,#1035));
#1033=ORIENTED_EDGE('',*,*,#1026,.F.);
#1034=ORIENTED_EDGE('',*,*,#532,.T.);
#1035=ORIENTED_EDGE('',*,*,#1036,.T.);
#1036=EDGE_CURVE('',#552,#993,#1037,.T.);
#1037=LINE('',#994,#43);
#1038=PLANE('',#1039);
#1039=AXIS2_PLACEMENT_3D('',#534,#47,#28);
#1040=ADVANCED_FACE('',(#1041),#1038,.F.);
#1041=FACE_BOUND('',#1042,.F.);
#1042=EDGE_LOOP('',(#1043,#1044,#562,#1047));
#1043=ORIENTED_EDGE('',*,*,#999,.F.);
#1044=ORIENTED_EDGE('',*,*,#1045,.T.);
#1045=EDGE_CURVE('',#991,#557,#1046,.T.);
#1046=LINE('',#992,#34);
#1047=ORIENTED_EDGE('',*,*,#583,.F.);
#1048=ADVANCED_FACE('',(#1049),#1052,.F.);
#1049=FACE_BOUND('',#1050,.T.);
#1050=EDGE_LOOP('',(#989,#1044,#1051,#1035));
#1051=ORIENTED_EDGE('',*,*,#556,.F.);
#1052=CYLINDRICAL_SURFACE('',#1053,0.225);
#1053=AXIS2_PLACEMENT_3D('',#997,#44,#28);
#1054=ADVANCED_FACE('',(#1055),#345,.F.);
#1055=FACE_BOUND('',#1056,.F.);
#1056=EDGE_LOOP('',(#1057,#1059,#600,#1060));
#1057=ORIENTED_EDGE('',*,*,#1058,.F.);
#1058=EDGE_CURVE('',#579,#625,#72,.T.);
#1059=ORIENTED_EDGE('',*,*,#593,.F.);
#1060=ORIENTED_EDGE('',*,*,#630,.F.);
#1061=ADVANCED_FACE('',(#1062),#746,.F.);
#1062=FACE_BOUND('',#1063,.F.);
#1063=EDGE_LOOP('',(#1064,#1073,#1076,#1077,#1078,#1079,#1083,#1089,#1091,#1092));
#1064=ORIENTED_EDGE('',*,*,#1065,.F.);
#1065=EDGE_CURVE('',#1066,#1068,#1070,.T.);
#1066=VERTEX_POINT('',#1067);
#1067=CARTESIAN_POINT('',(0.225,-1.525,0.E+000));
#1068=VERTEX_POINT('',#1069);
#1069=CARTESIAN_POINT('',(-0.225,-1.525,0.E+000));
#1070=CIRCLE('',#1071,0.225);
#1071=AXIS2_PLACEMENT_3D('',#1072,#13,#28);
#1072=CARTESIAN_POINT('',(0.E+000,-1.525,0.E+000));
#1073=ORIENTED_EDGE('',*,*,#1074,.T.);
#1074=EDGE_CURVE('',#1066,#664,#1075,.T.);
#1075=LINE('',#621,#27);
#1076=ORIENTED_EDGE('',*,*,#663,.T.);
#1077=ORIENTED_EDGE('',*,*,#734,.F.);
#1078=ORIENTED_EDGE('',*,*,#743,.T.);
#1079=ORIENTED_EDGE('',*,*,#1080,.F.);
#1080=EDGE_CURVE('',#1081,#740,#84,.T.);
#1081=VERTEX_POINT('',#1082);
#1082=CARTESIAN_POINT('',(-0.55,-1.05,0.E+000));
#1083=ORIENTED_EDGE('',*,*,#1084,.T.);
#1084=EDGE_CURVE('',#1081,#1085,#1087,.T.);
#1085=VERTEX_POINT('',#1086);
#1086=CARTESIAN_POINT('',(-0.55,-1.5,0.E+000));
#1087=LINE('',#1088,#92);
#1088=CARTESIAN_POINT('',(-0.55,1.525,0.E+000));
#1089=ORIENTED_EDGE('',*,*,#1090,.F.);
#1090=EDGE_CURVE('',#625,#1085,#72,.T.);
#1091=ORIENTED_EDGE('',*,*,#624,.T.);
#1092=ORIENTED_EDGE('',*,*,#1093,.T.);
#1093=EDGE_CURVE('',#620,#1068,#1075,.T.);
#1094=ADVANCED_FACE('',(#1095),#1102,.F.);
#1095=FACE_BOUND('',#1096,.F.);
#1096=EDGE_LOOP('',(#1097,#1098,#637,#1099));
#1097=ORIENTED_EDGE('',*,*,#1093,.F.);
#1098=ORIENTED_EDGE('',*,*,#619,.T.);
#1099=ORIENTED_EDGE('',*,*,#1100,.T.);
#1100=EDGE_CURVE('',#639,#1068,#1101,.T.);
#1101=LINE('',#1069,#43);
#1102=PLANE('',#1103);
#1103=AXIS2_PLACEMENT_3D('',#621,#47,#28);
#1104=ADVANCED_FACE('',(#1105),#1102,.F.);
#1105=FACE_BOUND('',#1106,.F.);
#1106=EDGE_LOOP('',(#1107,#1108,#649,#1111));
#1107=ORIENTED_EDGE('',*,*,#1074,.F.);
#1108=ORIENTED_EDGE('',*,*,#1109,.T.);
#1109=EDGE_CURVE('',#1066,#644,#1110,.T.);
#1110=LINE('',#1067,#34);
#1111=ORIENTED_EDGE('',*,*,#666,.F.);
#1112=ADVANCED_FACE('',(#1113),#1116,.F.);
#1113=FACE_BOUND('',#1114,.T.);
#1114=EDGE_LOOP('',(#1064,#1108,#1115,#1099));
#1115=ORIENTED_EDGE('',*,*,#643,.F.);
#1116=CYLINDRICAL_SURFACE('',#1117,0.225);
#1117=AXIS2_PLACEMENT_3D('',#1072,#44,#28);
#1118=ADVANCED_FACE('',(#1119),#1134,.T.);
#1119=FACE_BOUND('',#1120,.F.);
#1120=EDGE_LOOP('',(#1121,#1122,#1128,#1133));
#1121=ORIENTED_EDGE('',*,*,#705,.T.);
#1122=ORIENTED_EDGE('',*,*,#1123,.T.);
#1123=EDGE_CURVE('',#700,#1124,#1126,.T.);
#1124=VERTEX_POINT('',#1125);
#1125=CARTESIAN_POINT('',(3.15,0.9,1.55));
#1126=LINE('',#1127,#67);
#1127=CARTESIAN_POINT('',(3.15,-1.05,1.55));
#1128=ORIENTED_EDGE('',*,*,#1129,.F.);
#1129=EDGE_CURVE('',#678,#1124,#1130,.T.);
#1130=ELLIPSE('',#1131,0.212132034356,0.15);
#1131=AXIS2_PLACEMENT_3D('',#1132,#710,#709);
#1132=CARTESIAN_POINT('',(3.15,0.9,1.4));
#1133=ORIENTED_EDGE('',*,*,#677,.F.);
#1134=CYLINDRICAL_SURFACE('',#1135,0.15);
#1135=AXIS2_PLACEMENT_3D('',#1136,#47,#28);
#1136=CARTESIAN_POINT('',(3.15,-1.05,1.4));
#1137=ADVANCED_FACE('',(#1138),#1154,.T.);
#1138=FACE_BOUND('',#1139,.F.);
#1139=EDGE_LOOP('',(#1140,#1148,#1152,#1153));
#1140=ORIENTED_EDGE('',*,*,#1141,.T.);
#1141=EDGE_CURVE('',#720,#1142,#1144,.T.);
#1142=VERTEX_POINT('',#1143);
#1143=CARTESIAN_POINT('',(-3.15,0.9,1.55));
#1144=ELLIPSE('',#1145,0.212132034356,0.15);
#1145=AXIS2_PLACEMENT_3D('',#1146,#1147,#696);
#1146=CARTESIAN_POINT('',(-3.15,0.9,1.4));
#1147=DIRECTION('',(0.707106781187,0.707106781187,-0.E+000));
#1148=ORIENTED_EDGE('',*,*,#1149,.T.);
#1149=EDGE_CURVE('',#1142,#691,#1150,.T.);
#1150=LINE('',#1151,#92);
#1151=CARTESIAN_POINT('',(-3.15,1.05,1.55));
#1152=ORIENTED_EDGE('',*,*,#690,.F.);
#1153=ORIENTED_EDGE('',*,*,#725,.F.);
#1154=CYLINDRICAL_SURFACE('',#1155,0.15);
#1155=AXIS2_PLACEMENT_3D('',#1156,#93,#146);
#1156=CARTESIAN_POINT('',(-3.15,1.05,1.4));
#1157=ADVANCED_FACE('',(#1158),#1164,.T.);
#1158=FACE_BOUND('',#1159,.T.);
#1159=EDGE_LOOP('',(#1160,#1148,#698,#1122));
#1160=ORIENTED_EDGE('',*,*,#1161,.T.);
#1161=EDGE_CURVE('',#1124,#1142,#1162,.T.);
#1162=LINE('',#1163,#145);
#1163=CARTESIAN_POINT('',(3.3,0.9,1.55));
#1164=PLANE('',#1165);
#1165=AXIS2_PLACEMENT_3D('',#1166,#13,#28);
#1166=CARTESIAN_POINT('',(1.020894735288E-016,5.104473676438E-017,1.55));
#1167=ADVANCED_FACE('',(#1168),#746,.F.);
#1168=FACE_BOUND('',#1169,.F.);
#1169=EDGE_LOOP('',(#1170,#1171,#1172,#1176));
#1170=ORIENTED_EDGE('',*,*,#739,.T.);
#1171=ORIENTED_EDGE('',*,*,#753,.T.);
#1172=ORIENTED_EDGE('',*,*,#1173,.T.);
#1173=EDGE_CURVE('',#754,#1174,#198,.T.);
#1174=VERTEX_POINT('',#1175);
#1175=CARTESIAN_POINT('',(0.55,1.05,0.E+000));
#1176=ORIENTED_EDGE('',*,*,#1177,.F.);
#1177=EDGE_CURVE('',#740,#1174,#744,.T.);
#1178=ADVANCED_FACE('',(#1179),#182,.F.);
#1179=FACE_BOUND('',#1180,.F.);
#1180=EDGE_LOOP('',(#1181,#1185,#1186,#1187));
#1181=ORIENTED_EDGE('',*,*,#1182,.F.);
#1182=EDGE_CURVE('',#754,#1183,#353,.T.);
#1183=VERTEX_POINT('',#1184);
#1184=CARTESIAN_POINT('',(0.6,1.5,0.E+000));
#1185=ORIENTED_EDGE('',*,*,#759,.F.);
#1186=ORIENTED_EDGE('',*,*,#764,.F.);
#1187=ORIENTED_EDGE('',*,*,#1188,.T.);
#1188=EDGE_CURVE('',#402,#1183,#379,.T.);
#1189=ADVANCED_FACE('',(#1190),#870,.F.);
#1190=FACE_BOUND('',#1191,.F.);
#1191=EDGE_LOOP('',(#1192,#1193,#1194,#1198));
#1192=ORIENTED_EDGE('',*,*,#1188,.F.);
#1193=ORIENTED_EDGE('',*,*,#797,.F.);
#1194=ORIENTED_EDGE('',*,*,#1195,.T.);
#1195=EDGE_CURVE('',#794,#1196,#473,.T.);
#1196=VERTEX_POINT('',#1197);
#1197=CARTESIAN_POINT('',(0.6,1.5,0.5));
#1198=ORIENTED_EDGE('',*,*,#1199,.F.);
#1199=EDGE_CURVE('',#1183,#1196,#1200,.T.);
#1200=LINE('',#1184,#34);
#1201=ADVANCED_FACE('',(#1202),#331,.T.);
#1202=FACE_BOUND('',#1203,.T.);
#1203=EDGE_LOOP('',(#927,#792,#1194,#1204));
#1204=ORIENTED_EDGE('',*,*,#1205,.F.);
#1205=EDGE_CURVE('',#924,#1196,#325,.T.);
#1206=ADVANCED_FACE('',(#1207),#147,.T.);
#1207=FACE_BOUND('',#1208,.T.);
#1208=EDGE_LOOP('',(#783,#930,#848,#838,#1209,#808));
#1209=ORIENTED_EDGE('',*,*,#824,.T.);
#1210=ADVANCED_FACE('',(#1211),#670,.F.);
#1211=FACE_BOUND('',#1212,.F.);
#1212=EDGE_LOOP('',(#1213,#1214,#1218,#1223,#1225,#1204));
#1213=ORIENTED_EDGE('',*,*,#923,.T.);
#1214=ORIENTED_EDGE('',*,*,#1215,.T.);
#1215=EDGE_CURVE('',#918,#1216,#655,.T.);
#1216=VERTEX_POINT('',#1217);
#1217=CARTESIAN_POINT('',(0.6,1.525,0.525));
#1218=ORIENTED_EDGE('',*,*,#1219,.F.);
#1219=EDGE_CURVE('',#1220,#1216,#1222,.T.);
#1220=VERTEX_POINT('',#1221);
#1221=CARTESIAN_POINT('',(0.6,1.525,0.E+000));
#1222=LINE('',#1221,#34);
#1223=ORIENTED_EDGE('',*,*,#1224,.F.);
#1224=EDGE_CURVE('',#1183,#1220,#353,.T.);
#1225=ORIENTED_EDGE('',*,*,#1199,.T.);
#1226=ADVANCED_FACE('',(#1227),#656,.T.);
#1227=FACE_BOUND('',#1228,.T.);
#1228=EDGE_LOOP('',(#1229,#916,#1214,#1232,#1237,#1244));
#1229=ORIENTED_EDGE('',*,*,#1230,.T.);
#1230=EDGE_CURVE('',#1231,#912,#616,.T.);
#1231=VERTEX_POINT('',#617);
#1232=ORIENTED_EDGE('',*,*,#1233,.T.);
#1233=EDGE_CURVE('',#1216,#1234,#1236,.T.);
#1234=VERTEX_POINT('',#1235);
#1235=CARTESIAN_POINT('',(0.225,1.525,0.525));
#1236=LINE('',#1217,#145);
#1237=ORIENTED_EDGE('',*,*,#1238,.T.);
#1238=EDGE_CURVE('',#1234,#1239,#1241,.T.);
#1239=VERTEX_POINT('',#1240);
#1240=CARTESIAN_POINT('',(-0.225,1.525,0.525));
#1241=CIRCLE('',#1242,0.225);
#1242=AXIS2_PLACEMENT_3D('',#1243,#119,#28);
#1243=CARTESIAN_POINT('',(0.E+000,1.525,0.525));
#1244=ORIENTED_EDGE('',*,*,#1245,.T.);
#1245=EDGE_CURVE('',#1239,#1231,#1236,.T.);
#1246=ADVANCED_FACE('',(#1247),#632,.F.);
#1247=FACE_BOUND('',#1248,.F.);
#1248=EDGE_LOOP('',(#1249,#1254,#1229,#1257,#1258,#1262));
#1249=ORIENTED_EDGE('',*,*,#1250,.F.);
#1250=EDGE_CURVE('',#1251,#1252,#627,.T.);
#1251=VERTEX_POINT('',#628);
#1252=VERTEX_POINT('',#1253);
#1253=CARTESIAN_POINT('',(-0.6,1.5,0.E+000));
#1254=ORIENTED_EDGE('',*,*,#1255,.T.);
#1255=EDGE_CURVE('',#1251,#1231,#1256,.T.);
#1256=LINE('',#628,#34);
#1257=ORIENTED_EDGE('',*,*,#911,.T.);
#1258=ORIENTED_EDGE('',*,*,#1259,.F.);
#1259=EDGE_CURVE('',#1260,#908,#606,.T.);
#1260=VERTEX_POINT('',#1261);
#1261=CARTESIAN_POINT('',(-0.6,1.5,0.5));
#1262=ORIENTED_EDGE('',*,*,#1263,.T.);
#1263=EDGE_CURVE('',#1260,#1252,#1264,.T.);
#1264=LINE('',#1253,#226);
#1265=ADVANCED_FACE('',(#1266),#331,.T.);
#1266=FACE_BOUND('',#1267,.T.);
#1267=EDGE_LOOP('',(#906,#1258,#1268,#1272));
#1268=ORIENTED_EDGE('',*,*,#1269,.T.);
#1269=EDGE_CURVE('',#1260,#1270,#473,.T.);
#1270=VERTEX_POINT('',#1271);
#1271=CARTESIAN_POINT('',(-1.9,1.5,0.5));
#1272=ORIENTED_EDGE('',*,*,#1273,.F.);
#1273=EDGE_CURVE('',#902,#1270,#590,.T.);
#1274=ADVANCED_FACE('',(#1275),#595,.F.);
#1275=FACE_BOUND('',#1276,.F.);
#1276=EDGE_LOOP('',(#1277,#1278,#1282,#1287,#1291,#1272));
#1277=ORIENTED_EDGE('',*,*,#901,.T.);
#1278=ORIENTED_EDGE('',*,*,#1279,.T.);
#1279=EDGE_CURVE('',#896,#1280,#568,.T.);
#1280=VERTEX_POINT('',#1281);
#1281=CARTESIAN_POINT('',(-1.9,1.525,0.525));
#1282=ORIENTED_EDGE('',*,*,#1283,.F.);
#1283=EDGE_CURVE('',#1284,#1280,#1286,.T.);
#1284=VERTEX_POINT('',#1285);
#1285=CARTESIAN_POINT('',(-1.9,1.525,0.E+000));
#1286=LINE('',#1285,#34);
#1287=ORIENTED_EDGE('',*,*,#1288,.F.);
#1288=EDGE_CURVE('',#1289,#1284,#581,.T.);
#1289=VERTEX_POINT('',#1290);
#1290=CARTESIAN_POINT('',(-1.9,1.5,0.E+000));
#1291=ORIENTED_EDGE('',*,*,#1292,.T.);
#1292=EDGE_CURVE('',#1289,#1270,#1293,.T.);
#1293=LINE('',#1290,#34);
#1294=ADVANCED_FACE('',(#1295),#569,.T.);
#1295=FACE_BOUND('',#1296,.T.);
#1296=EDGE_LOOP('',(#949,#894,#1278,#1297,#1302,#1309));
#1297=ORIENTED_EDGE('',*,*,#1298,.T.);
#1298=EDGE_CURVE('',#1280,#1299,#1301,.T.);
#1299=VERTEX_POINT('',#1300);
#1300=CARTESIAN_POINT('',(-2.275,1.525,0.525));
#1301=LINE('',#1281,#145);
#1302=ORIENTED_EDGE('',*,*,#1303,.T.);
#1303=EDGE_CURVE('',#1299,#1304,#1306,.T.);
#1304=VERTEX_POINT('',#1305);
#1305=CARTESIAN_POINT('',(-2.725,1.525,0.525));
#1306=CIRCLE('',#1307,0.225);
#1307=AXIS2_PLACEMENT_3D('',#1308,#119,#28);
#1308=CARTESIAN_POINT('',(-2.5,1.525,0.525));
#1309=ORIENTED_EDGE('',*,*,#1310,.T.);
#1310=EDGE_CURVE('',#1304,#947,#1301,.T.);
#1311=ADVANCED_FACE('',(#1312),#1317,.T.);
#1312=FACE_BOUND('',#1313,.F.);
#1313=EDGE_LOOP('',(#1314,#1160,#1315,#1316));
#1314=ORIENTED_EDGE('',*,*,#1129,.T.);
#1315=ORIENTED_EDGE('',*,*,#1141,.F.);
#1316=ORIENTED_EDGE('',*,*,#885,.F.);
#1317=CYLINDRICAL_SURFACE('',#1318,0.15);
#1318=AXIS2_PLACEMENT_3D('',#1319,#146,#47);
#1319=CARTESIAN_POINT('',(3.3,0.9,1.4));
#1320=ADVANCED_FACE('',(#1321),#1027,.F.);
#1321=FACE_BOUND('',#1322,.F.);
#1322=EDGE_LOOP('',(#1323,#1327,#1328,#1333,#1340,#1342,#1343,#1347,#1351,#1355));
#1323=ORIENTED_EDGE('',*,*,#1324,.F.);
#1324=EDGE_CURVE('',#1289,#1325,#379,.T.);
#1325=VERTEX_POINT('',#1326);
#1326=CARTESIAN_POINT('',(-1.95,1.5,0.E+000));
#1327=ORIENTED_EDGE('',*,*,#1288,.T.);
#1328=ORIENTED_EDGE('',*,*,#1329,.T.);
#1329=EDGE_CURVE('',#1284,#1330,#1332,.T.);
#1330=VERTEX_POINT('',#1331);
#1331=CARTESIAN_POINT('',(-2.275,1.525,0.E+000));
#1332=LINE('',#1285,#145);
#1333=ORIENTED_EDGE('',*,*,#1334,.F.);
#1334=EDGE_CURVE('',#1335,#1330,#1337,.T.);
#1335=VERTEX_POINT('',#1336);
#1336=CARTESIAN_POINT('',(-2.725,1.525,0.E+000));
#1337=CIRCLE('',#1338,0.225);
#1338=AXIS2_PLACEMENT_3D('',#1339,#13,#28);
#1339=CARTESIAN_POINT('',(-2.5,1.525,0.E+000));
#1340=ORIENTED_EDGE('',*,*,#1341,.T.);
#1341=EDGE_CURVE('',#1335,#942,#1332,.T.);
#1342=ORIENTED_EDGE('',*,*,#941,.T.);
#1343=ORIENTED_EDGE('',*,*,#1344,.F.);
#1344=EDGE_CURVE('',#1345,#943,#379,.T.);
#1345=VERTEX_POINT('',#1346);
#1346=CARTESIAN_POINT('',(-3.05,1.5,0.E+000));
#1347=ORIENTED_EDGE('',*,*,#1348,.T.);
#1348=EDGE_CURVE('',#1345,#1349,#1020,.T.);
#1349=VERTEX_POINT('',#1350);
#1350=CARTESIAN_POINT('',(-3.05,1.05,0.E+000));
#1351=ORIENTED_EDGE('',*,*,#1352,.F.);
#1352=EDGE_CURVE('',#1353,#1349,#198,.T.);
#1353=VERTEX_POINT('',#1354);
#1354=CARTESIAN_POINT('',(-1.95,1.05,0.E+000));
#1355=ORIENTED_EDGE('',*,*,#1356,.T.);
#1356=EDGE_CURVE('',#1353,#1325,#1010,.T.);
#1357=ADVANCED_FACE('',(#1358),#1365,.F.);
#1358=FACE_BOUND('',#1359,.F.);
#1359=EDGE_LOOP('',(#1360,#1361,#1309,#1364));
#1360=ORIENTED_EDGE('',*,*,#1341,.F.);
#1361=ORIENTED_EDGE('',*,*,#1362,.F.);
#1362=EDGE_CURVE('',#1304,#1335,#1363,.T.);
#1363=LINE('',#1336,#43);
#1364=ORIENTED_EDGE('',*,*,#946,.F.);
#1365=PLANE('',#1366);
#1366=AXIS2_PLACEMENT_3D('',#1285,#93,#146);
#1367=ADVANCED_FACE('',(#1368),#182,.F.);
#1368=FACE_BOUND('',#1369,.F.);
#1369=EDGE_LOOP('',(#1370,#1373,#1374,#1375,#1376,#1379,#1382,#1386));
#1370=ORIENTED_EDGE('',*,*,#1371,.F.);
#1371=EDGE_CURVE('',#943,#1372,#540,.T.);
#1372=VERTEX_POINT('',#893);
#1373=ORIENTED_EDGE('',*,*,#983,.T.);
#1374=ORIENTED_EDGE('',*,*,#975,.T.);
#1375=ORIENTED_EDGE('',*,*,#959,.T.);
#1376=ORIENTED_EDGE('',*,*,#1377,.F.);
#1377=EDGE_CURVE('',#1378,#538,#540,.T.);
#1378=VERTEX_POINT('',#315);
#1379=ORIENTED_EDGE('',*,*,#1380,.F.);
#1380=EDGE_CURVE('',#1381,#1378,#84,.T.);
#1381=VERTEX_POINT('',#85);
#1382=ORIENTED_EDGE('',*,*,#1383,.F.);
#1383=EDGE_CURVE('',#1384,#1381,#1385,.T.);
#1384=VERTEX_POINT('',#723);
#1385=LINE('',#723,#92);
#1386=ORIENTED_EDGE('',*,*,#1387,.F.);
#1387=EDGE_CURVE('',#1372,#1384,#198,.T.);
#1388=ADVANCED_FACE('',(#1389),#182,.F.);
#1389=FACE_BOUND('',#1390,.F.);
#1390=EDGE_LOOP('',(#1391,#1392,#1393,#1394));
#1391=ORIENTED_EDGE('',*,*,#1377,.T.);
#1392=ORIENTED_EDGE('',*,*,#1023,.T.);
#1393=ORIENTED_EDGE('',*,*,#1017,.F.);
#1394=ORIENTED_EDGE('',*,*,#1395,.F.);
#1395=EDGE_CURVE('',#1378,#1014,#84,.T.);
#1396=ADVANCED_FACE('',(#1397),#200,.F.);
#1397=FACE_BOUND('',#1398,.F.);
#1398=EDGE_LOOP('',(#1399,#1401,#1402,#1404));
#1399=ORIENTED_EDGE('',*,*,#1400,.T.);
#1400=EDGE_CURVE('',#1349,#1014,#1020,.T.);
#1401=ORIENTED_EDGE('',*,*,#1013,.T.);
#1402=ORIENTED_EDGE('',*,*,#1403,.T.);
#1403=EDGE_CURVE('',#1008,#1353,#1010,.T.);
#1404=ORIENTED_EDGE('',*,*,#1352,.T.);
#1405=ADVANCED_FACE('',(#1406),#182,.F.);
#1406=FACE_BOUND('',#1407,.F.);
#1407=EDGE_LOOP('',(#1408,#1409,#1410,#1413));
#1408=ORIENTED_EDGE('',*,*,#1007,.F.);
#1409=ORIENTED_EDGE('',*,*,#1003,.T.);
#1410=ORIENTED_EDGE('',*,*,#1411,.T.);
#1411=EDGE_CURVE('',#579,#1412,#581,.T.);
#1412=VERTEX_POINT('',#305);
#1413=ORIENTED_EDGE('',*,*,#1414,.F.);
#1414=EDGE_CURVE('',#1008,#1412,#84,.T.);
#1415=ADVANCED_FACE('',(#1416),#182,.F.);
#1416=FACE_BOUND('',#1417,.F.);
#1417=EDGE_LOOP('',(#1418,#1419,#1420,#1423));
#1418=ORIENTED_EDGE('',*,*,#1411,.F.);
#1419=ORIENTED_EDGE('',*,*,#1058,.T.);
#1420=ORIENTED_EDGE('',*,*,#1421,.F.);
#1421=EDGE_CURVE('',#1422,#625,#627,.T.);
#1422=VERTEX_POINT('',#295);
#1423=ORIENTED_EDGE('',*,*,#1424,.F.);
#1424=EDGE_CURVE('',#1412,#1422,#84,.T.);
#1425=ADVANCED_FACE('',(#1426),#746,.F.);
#1426=FACE_BOUND('',#1427,.F.);
#1427=EDGE_LOOP('',(#1428,#1429,#1430,#1431));
#1428=ORIENTED_EDGE('',*,*,#1421,.T.);
#1429=ORIENTED_EDGE('',*,*,#1090,.T.);
#1430=ORIENTED_EDGE('',*,*,#1084,.F.);
#1431=ORIENTED_EDGE('',*,*,#1432,.F.);
#1432=EDGE_CURVE('',#1422,#1081,#84,.T.);
#1433=ADVANCED_FACE('',(#1434),#200,.F.);
#1434=FACE_BOUND('',#1435,.F.);
#1435=EDGE_LOOP('',(#1436,#1440,#1441,#1442));
#1436=ORIENTED_EDGE('',*,*,#1437,.T.);
#1437=EDGE_CURVE('',#1438,#1081,#1087,.T.);
#1438=VERTEX_POINT('',#1439);
#1439=CARTESIAN_POINT('',(-0.55,1.05,0.E+000));
#1440=ORIENTED_EDGE('',*,*,#1080,.T.);
#1441=ORIENTED_EDGE('',*,*,#1177,.T.);
#1442=ORIENTED_EDGE('',*,*,#1443,.T.);
#1443=EDGE_CURVE('',#1174,#1438,#198,.T.);
#1444=ADVANCED_FACE('',(#1445),#746,.F.);
#1445=FACE_BOUND('',#1446,.F.);
#1446=EDGE_LOOP('',(#1447,#1448,#1449,#1453));
#1447=ORIENTED_EDGE('',*,*,#1173,.F.);
#1448=ORIENTED_EDGE('',*,*,#1182,.T.);
#1449=ORIENTED_EDGE('',*,*,#1450,.T.);
#1450=EDGE_CURVE('',#1183,#1451,#379,.T.);
#1451=VERTEX_POINT('',#1452);
#1452=CARTESIAN_POINT('',(0.55,1.5,0.E+000));
#1453=ORIENTED_EDGE('',*,*,#1454,.F.);
#1454=EDGE_CURVE('',#1174,#1451,#744,.T.);
#1455=ADVANCED_FACE('',(#1456),#746,.F.);
#1456=FACE_BOUND('',#1457,.F.);
#1457=EDGE_LOOP('',(#1458,#1459,#1460,#1465,#1472,#1474,#1475,#1479,#1481,#1482));
#1458=ORIENTED_EDGE('',*,*,#1450,.F.);
#1459=ORIENTED_EDGE('',*,*,#1224,.T.);
#1460=ORIENTED_EDGE('',*,*,#1461,.T.);
#1461=EDGE_CURVE('',#1220,#1462,#1464,.T.);
#1462=VERTEX_POINT('',#1463);
#1463=CARTESIAN_POINT('',(0.225,1.525,0.E+000));
#1464=LINE('',#1221,#145);
#1465=ORIENTED_EDGE('',*,*,#1466,.F.);
#1466=EDGE_CURVE('',#1467,#1462,#1469,.T.);
#1467=VERTEX_POINT('',#1468);
#1468=CARTESIAN_POINT('',(-0.225,1.525,0.E+000));
#1469=CIRCLE('',#1470,0.225);
#1470=AXIS2_PLACEMENT_3D('',#1471,#13,#28);
#1471=CARTESIAN_POINT('',(0.E+000,1.525,0.E+000));
#1472=ORIENTED_EDGE('',*,*,#1473,.T.);
#1473=EDGE_CURVE('',#1467,#1251,#1464,.T.);
#1474=ORIENTED_EDGE('',*,*,#1250,.T.);
#1475=ORIENTED_EDGE('',*,*,#1476,.F.);
#1476=EDGE_CURVE('',#1477,#1252,#379,.T.);
#1477=VERTEX_POINT('',#1478);
#1478=CARTESIAN_POINT('',(-0.55,1.5,0.E+000));
#1479=ORIENTED_EDGE('',*,*,#1480,.T.);
#1480=EDGE_CURVE('',#1477,#1438,#1087,.T.);
#1481=ORIENTED_EDGE('',*,*,#1443,.F.);
#1482=ORIENTED_EDGE('',*,*,#1454,.T.);
#1483=ADVANCED_FACE('',(#1484),#1491,.F.);
#1484=FACE_BOUND('',#1485,.F.);
#1485=EDGE_LOOP('',(#1486,#1487,#1232,#1488));
#1486=ORIENTED_EDGE('',*,*,#1461,.F.);
#1487=ORIENTED_EDGE('',*,*,#1219,.T.);
#1488=ORIENTED_EDGE('',*,*,#1489,.F.);
#1489=EDGE_CURVE('',#1462,#1234,#1490,.T.);
#1490=LINE('',#1463,#34);
#1491=PLANE('',#1492);
#1492=AXIS2_PLACEMENT_3D('',#1221,#93,#146);
#1493=ADVANCED_FACE('',(#1494),#1491,.F.);
#1494=FACE_BOUND('',#1495,.F.);
#1495=EDGE_LOOP('',(#1496,#1497,#1244,#1500));
#1496=ORIENTED_EDGE('',*,*,#1473,.F.);
#1497=ORIENTED_EDGE('',*,*,#1498,.F.);
#1498=EDGE_CURVE('',#1239,#1467,#1499,.T.);
#1499=LINE('',#1468,#43);
#1500=ORIENTED_EDGE('',*,*,#1255,.F.);
#1501=ADVANCED_FACE('',(#1502),#1505,.F.);
#1502=FACE_BOUND('',#1503,.T.);
#1503=EDGE_LOOP('',(#1488,#1465,#1497,#1504));
#1504=ORIENTED_EDGE('',*,*,#1238,.F.);
#1505=CYLINDRICAL_SURFACE('',#1506,0.225);
#1506=AXIS2_PLACEMENT_3D('',#1471,#44,#28);
#1507=ADVANCED_FACE('',(#1508),#870,.F.);
#1508=FACE_BOUND('',#1509,.F.);
#1509=EDGE_LOOP('',(#1510,#1512,#1268,#1513));
#1510=ORIENTED_EDGE('',*,*,#1511,.F.);
#1511=EDGE_CURVE('',#1252,#1289,#379,.T.);
#1512=ORIENTED_EDGE('',*,*,#1263,.F.);
#1513=ORIENTED_EDGE('',*,*,#1292,.F.);
#1514=ADVANCED_FACE('',(#1515),#1365,.F.);
#1515=FACE_BOUND('',#1516,.F.);
#1516=EDGE_LOOP('',(#1517,#1518,#1297,#1519));
#1517=ORIENTED_EDGE('',*,*,#1329,.F.);
#1518=ORIENTED_EDGE('',*,*,#1283,.T.);
#1519=ORIENTED_EDGE('',*,*,#1520,.F.);
#1520=EDGE_CURVE('',#1330,#1299,#1521,.T.);
#1521=LINE('',#1331,#34);
#1522=ADVANCED_FACE('',(#1523),#1526,.F.);
#1523=FACE_BOUND('',#1524,.T.);
#1524=EDGE_LOOP('',(#1519,#1333,#1361,#1525));
#1525=ORIENTED_EDGE('',*,*,#1303,.F.);
#1526=CYLINDRICAL_SURFACE('',#1527,0.225);
#1527=AXIS2_PLACEMENT_3D('',#1339,#44,#28);
#1528=ADVANCED_FACE('',(#1529),#182,.F.);
#1529=FACE_BOUND('',#1530,.F.);
#1530=EDGE_LOOP('',(#1531,#1532,#1535,#1537));
#1531=ORIENTED_EDGE('',*,*,#1356,.F.);
#1532=ORIENTED_EDGE('',*,*,#1533,.F.);
#1533=EDGE_CURVE('',#1534,#1353,#198,.T.);
#1534=VERTEX_POINT('',#905);
#1535=ORIENTED_EDGE('',*,*,#1536,.T.);
#1536=EDGE_CURVE('',#1534,#1289,#581,.T.);
#1537=ORIENTED_EDGE('',*,*,#1324,.T.);
#1538=ADVANCED_FACE('',(#1539),#182,.F.);
#1539=FACE_BOUND('',#1540,.F.);
#1540=EDGE_LOOP('',(#1541,#1542,#1543,#1544));
#1541=ORIENTED_EDGE('',*,*,#1348,.F.);
#1542=ORIENTED_EDGE('',*,*,#1344,.T.);
#1543=ORIENTED_EDGE('',*,*,#1371,.T.);
#1544=ORIENTED_EDGE('',*,*,#1545,.F.);
#1545=EDGE_CURVE('',#1349,#1372,#198,.T.);
#1546=ADVANCED_FACE('',(#1547),#200,.F.);
#1547=FACE_BOUND('',#1548,.F.);
#1548=EDGE_LOOP('',(#1549,#1550,#1551,#1552));
#1549=ORIENTED_EDGE('',*,*,#1387,.T.);
#1550=ORIENTED_EDGE('',*,*,#1383,.T.);
#1551=ORIENTED_EDGE('',*,*,#1380,.T.);
#1552=ORIENTED_EDGE('',*,*,#1553,.F.);
#1553=EDGE_CURVE('',#1372,#1378,#540,.T.);
#1554=ADVANCED_FACE('',(#1555),#200,.F.);
#1555=FACE_BOUND('',#1556,.F.);
#1556=EDGE_LOOP('',(#1557,#1558,#1559,#1560));
#1557=ORIENTED_EDGE('',*,*,#1545,.T.);
#1558=ORIENTED_EDGE('',*,*,#1553,.T.);
#1559=ORIENTED_EDGE('',*,*,#1395,.T.);
#1560=ORIENTED_EDGE('',*,*,#1400,.F.);
#1561=ADVANCED_FACE('',(#1562),#200,.F.);
#1562=FACE_BOUND('',#1563,.F.);
#1563=EDGE_LOOP('',(#1564,#1565,#1566,#1568));
#1564=ORIENTED_EDGE('',*,*,#1403,.F.);
#1565=ORIENTED_EDGE('',*,*,#1414,.T.);
#1566=ORIENTED_EDGE('',*,*,#1567,.T.);
#1567=EDGE_CURVE('',#1412,#1534,#581,.T.);
#1568=ORIENTED_EDGE('',*,*,#1533,.T.);
#1569=ADVANCED_FACE('',(#1570),#200,.F.);
#1570=FACE_BOUND('',#1571,.F.);
#1571=EDGE_LOOP('',(#1572,#1573,#1574,#1577));
#1572=ORIENTED_EDGE('',*,*,#1567,.F.);
#1573=ORIENTED_EDGE('',*,*,#1424,.T.);
#1574=ORIENTED_EDGE('',*,*,#1575,.F.);
#1575=EDGE_CURVE('',#1576,#1422,#627,.T.);
#1576=VERTEX_POINT('',#915);
#1577=ORIENTED_EDGE('',*,*,#1578,.T.);
#1578=EDGE_CURVE('',#1576,#1534,#198,.T.);
#1579=ADVANCED_FACE('',(#1580),#746,.F.);
#1580=FACE_BOUND('',#1581,.F.);
#1581=EDGE_LOOP('',(#1582,#1583,#1584,#1585));
#1582=ORIENTED_EDGE('',*,*,#1575,.T.);
#1583=ORIENTED_EDGE('',*,*,#1432,.T.);
#1584=ORIENTED_EDGE('',*,*,#1437,.F.);
#1585=ORIENTED_EDGE('',*,*,#1586,.T.);
#1586=EDGE_CURVE('',#1438,#1576,#198,.T.);
#1587=ADVANCED_FACE('',(#1588),#746,.F.);
#1588=FACE_BOUND('',#1589,.F.);
#1589=EDGE_LOOP('',(#1590,#1592,#1593,#1594));
#1590=ORIENTED_EDGE('',*,*,#1591,.T.);
#1591=EDGE_CURVE('',#1252,#1576,#627,.T.);
#1592=ORIENTED_EDGE('',*,*,#1586,.F.);
#1593=ORIENTED_EDGE('',*,*,#1480,.F.);
#1594=ORIENTED_EDGE('',*,*,#1476,.T.);
#1595=ADVANCED_FACE('',(#1596),#182,.F.);
#1596=FACE_BOUND('',#1597,.F.);
#1597=EDGE_LOOP('',(#1598,#1599,#1600,#1601));
#1598=ORIENTED_EDGE('',*,*,#1536,.F.);
#1599=ORIENTED_EDGE('',*,*,#1578,.F.);
#1600=ORIENTED_EDGE('',*,*,#1591,.F.);
#1601=ORIENTED_EDGE('',*,*,#1511,.T.);
#1602=( GEOMETRIC_REPRESENTATION_CONTEXT(3) GLOBAL_UNCERTAINTY_ASSIGNED_CONTEXT((#1606)) GLOBAL_UNIT_ASSIGNED_CONTEXT((#1603,#1604,#1605)) REPRESENTATION_CONTEXT('Context #1','3D Context with UNIT and UNCERTAINTY') );
#1603=( LENGTH_UNIT() NAMED_UNIT(*) SI_UNIT(.MILLI.,.METRE.) );
#1604=( NAMED_UNIT(*) PLANE_ANGLE_UNIT() SI_UNIT($,.RADIAN.) );
#1605=( NAMED_UNIT(*) SI_UNIT($,.STERADIAN.) SOLID_ANGLE_UNIT() );
#1606=UNCERTAINTY_MEASURE_WITH_UNIT(LENGTH_MEASURE(2.E-007),#1603,'distance_accuracy_value','confusion accuracy');
#1607=PRODUCT_RELATED_PRODUCT_CATEGORY('part',$,(#7));
#1608=MECHANICAL_DESIGN_GEOMETRIC_PRESENTATION_REPRESENTATION('',(#1609,#1617,#1618,#1619,#1620,#1621,#1629,#1637,#1638,#1639,#1640,#1641,#1642,#1643,#1644,#1645,#1646,#1647,#1648,#1649,#1650,#1651,#1652,#1653,#1654,#1655,#1656,#1657,#1658,#1659,#1660,#1661,#1662,#1663,#1664,#1665,#1666,#1667,#1668,#1669,#1670,#1671,#1672,#1673,#1674,#1675,#1676,#1677,#1678,#1679,#1680,#1681,#1682,#1683,#1684,#1685,#1686,#1687,#1688,#1689,#1690,#1691,#1692,#1693,#1694,#1695,#1696,#1697,#1698,#1699,#1700,#1701,#1702,#1703,#1704,#1705,#1706,#1707,#1708,#1709,#1710,#1711,#1712,#1713,#1714,#1715,#1716,#1717,#1718,#1719,#1720,#1721,#1722,#1723,#1724,#1725,#1726,#1727),#1602);
#1609=STYLED_ITEM('color',(#1610),#17);
#1610=PRESENTATION_STYLE_ASSIGNMENT((#1611));
#1611=SURFACE_STYLE_USAGE(.BOTH.,#1612);
#1612=SURFACE_SIDE_STYLE('',(#1613));
#1613=SURFACE_STYLE_FILL_AREA(#1614);
#1614=FILL_AREA_STYLE('',(#1615));
#1615=FILL_AREA_STYLE_COLOUR('',#1616);
#1616=COLOUR_RGB('',0.85900002718,0.737999975681,0.495999991894);
#1617=STYLED_ITEM('color',(#1610),#48);
#1618=STYLED_ITEM('color',(#1610),#106);
#1619=STYLED_ITEM('color',(#1610),#122);
#1620=STYLED_ITEM('color',(#1610),#150);
#1621=STYLED_ITEM('color',(#1622),#172);
#1622=PRESENTATION_STYLE_ASSIGNMENT((#1623));
#1623=SURFACE_STYLE_USAGE(.BOTH.,#1624);
#1624=SURFACE_SIDE_STYLE('',(#1625));
#1625=SURFACE_STYLE_FILL_AREA(#1626);
#1626=FILL_AREA_STYLE('',(#1627));
#1627=FILL_AREA_STYLE_COLOUR('',#1628);
#1628=COLOUR_RGB('',0.894999980927,0.89099997282,0.813000023365);
#1629=STYLED_ITEM('color',(#1630),#184);
#1630=PRESENTATION_STYLE_ASSIGNMENT((#1631));
#1631=SURFACE_STYLE_USAGE(.BOTH.,#1632);
#1632=SURFACE_SIDE_STYLE('',(#1633));
#1633=SURFACE_STYLE_FILL_AREA(#1634);
#1634=FILL_AREA_STYLE('',(#1635));
#1635=FILL_AREA_STYLE_COLOUR('',#1636);
#1636=COLOUR_RGB('',0.507539987564,0.507539987564,0.507539987564);
#1637=STYLED_ITEM('color',(#1622),#203);
#1638=STYLED_ITEM('color',(#1610),#214);
#1639=STYLED_ITEM('color',(#1610),#238);
#1640=STYLED_ITEM('color',(#1630),#243);
#1641=STYLED_ITEM('color',(#1622),#318);
#1642=STYLED_ITEM('color',(#1622),#334);
#1643=STYLED_ITEM('color',(#1622),#347);
#1644=STYLED_ITEM('color',(#1622),#359);
#1645=STYLED_ITEM('color',(#1610),#370);
#1646=STYLED_ITEM('color',(#1622),#413);
#1647=STYLED_ITEM('color',(#1622),#424);
#1648=STYLED_ITEM('color',(#1622),#449);
#1649=STYLED_ITEM('color',(#1622),#461);
#1650=STYLED_ITEM('color',(#1622),#488);
#1651=STYLED_ITEM('color',(#1610),#521);
#1652=STYLED_ITEM('color',(#1610),#547);
#1653=STYLED_ITEM('color',(#1610),#572);
#1654=STYLED_ITEM('color',(#1622),#597);
#1655=STYLED_ITEM('color',(#1610),#608);
#1656=STYLED_ITEM('color',(#1610),#634);
#1657=STYLED_ITEM('color',(#1610),#659);
#1658=STYLED_ITEM('color',(#1630),#672);
#1659=STYLED_ITEM('color',(#1630),#686);
#1660=STYLED_ITEM('color',(#1630),#715);
#1661=STYLED_ITEM('color',(#1622),#730);
#1662=STYLED_ITEM('color',(#1622),#749);
#1663=STYLED_ITEM('color',(#1622),#760);
#1664=STYLED_ITEM('color',(#1622),#768);
#1665=STYLED_ITEM('color',(#1610),#775);
#1666=STYLED_ITEM('color',(#1610),#799);
#1667=STYLED_ITEM('color',(#1610),#815);
#1668=STYLED_ITEM('color',(#1610),#830);
#1669=STYLED_ITEM('color',(#1610),#840);
#1670=STYLED_ITEM('color',(#1622),#855);
#1671=STYLED_ITEM('color',(#1622),#862);
#1672=STYLED_ITEM('color',(#1622),#872);
#1673=STYLED_ITEM('color',(#1630),#880);
#1674=STYLED_ITEM('color',(#1610),#937);
#1675=STYLED_ITEM('color',(#1622),#955);
#1676=STYLED_ITEM('color',(#1622),#965);
#1677=STYLED_ITEM('color',(#1622),#979);
#1678=STYLED_ITEM('color',(#1610),#986);
#1679=STYLED_ITEM('color',(#1610),#1030);
#1680=STYLED_ITEM('color',(#1610),#1040);
#1681=STYLED_ITEM('color',(#1610),#1048);
#1682=STYLED_ITEM('color',(#1622),#1054);
#1683=STYLED_ITEM('color',(#1610),#1061);
#1684=STYLED_ITEM('color',(#1610),#1094);
#1685=STYLED_ITEM('color',(#1610),#1104);
#1686=STYLED_ITEM('color',(#1610),#1112);
#1687=STYLED_ITEM('color',(#1630),#1118);
#1688=STYLED_ITEM('color',(#1630),#1137);
#1689=STYLED_ITEM('color',(#1630),#1157);
#1690=STYLED_ITEM('color',(#1622),#1167);
#1691=STYLED_ITEM('color',(#1622),#1178);
#1692=STYLED_ITEM('color',(#1622),#1189);
#1693=STYLED_ITEM('color',(#1622),#1201);
#1694=STYLED_ITEM('color',(#1610),#1206);
#1695=STYLED_ITEM('color',(#1610),#1210);
#1696=STYLED_ITEM('color',(#1610),#1226);
#1697=STYLED_ITEM('color',(#1610),#1246);
#1698=STYLED_ITEM('color',(#1622),#1265);
#1699=STYLED_ITEM('color',(#1610),#1274);
#1700=STYLED_ITEM('color',(#1610),#1294);
#1701=STYLED_ITEM('color',(#1630),#1311);
#1702=STYLED_ITEM('color',(#1610),#1320);
#1703=STYLED_ITEM('color',(#1610),#1357);
#1704=STYLED_ITEM('color',(#1622),#1367);
#1705=STYLED_ITEM('color',(#1622),#1388);
#1706=STYLED_ITEM('color',(#1630),#1396);
#1707=STYLED_ITEM('color',(#1622),#1405);
#1708=STYLED_ITEM('color',(#1622),#1415);
#1709=STYLED_ITEM('color',(#1622),#1425);
#1710=STYLED_ITEM('color',(#1630),#1433);
#1711=STYLED_ITEM('color',(#1622),#1444);
#1712=STYLED_ITEM('color',(#1610),#1455);
#1713=STYLED_ITEM('color',(#1610),#1483);
#1714=STYLED_ITEM('color',(#1610),#1493);
#1715=STYLED_ITEM('color',(#1610),#1501);
#1716=STYLED_ITEM('color',(#1622),#1507);
#1717=STYLED_ITEM('color',(#1610),#1514);
#1718=STYLED_ITEM('color',(#1610),#1522);
#1719=STYLED_ITEM('color',(#1622),#1528);
#1720=STYLED_ITEM('color',(#1622),#1538);
#1721=STYLED_ITEM('color',(#1622),#1546);
#1722=STYLED_ITEM('color',(#1622),#1554);
#1723=STYLED_ITEM('color',(#1622),#1561);
#1724=STYLED_ITEM('color',(#1622),#1569);
#1725=STYLED_ITEM('color',(#1622),#1579);
#1726=STYLED_ITEM('color',(#1622),#1587);
#1727=STYLED_ITEM('color',(#1622),#1595);
ENDSEC;
END-ISO-10303-21;

